<?xml version="1.0" encoding="UTF-8"?>
<svg id="Calque_1" data-name="Calque 1" xmlns="http://www.w3.org/2000/svg" viewBox="0 0 65.16 64.3">
  <defs>
    <style>
      .cls-1 {
        fill: #1a1a1e;
      }
    </style>
  </defs>
  <path class="cls-1" d="M50.07,53.34s-.1-.02-.13-.06c-.07-.07-.06-.19,0-.26,5.87-5.47,9.24-13.2,9.24-21.22,0-8.73-3.88-16.91-10.65-22.45-.08-.06-.09-.18-.03-.26.06-.08.18-.09.26-.03,6.85,5.6,10.79,13.89,10.79,22.73,0,8.12-3.41,15.95-9.36,21.49-.04.03-.08.05-.12.05Z"/>
  <path class="cls-1" d="M1.43,27.31s-.02,0-.03,0c-.1-.02-.17-.11-.15-.21,1.1-6.8,4.6-13.04,9.85-17.56,5.31-4.57,12.1-7.08,19.12-7.08,2.94,0,5.84.43,8.62,1.29.1.03.15.13.12.23-.03.1-.13.15-.23.12-2.75-.84-5.61-1.27-8.52-1.27C15.91,2.83,3.88,13.06,1.61,27.16c-.01.09-.09.15-.18.15Z"/>
  <path class="cls-1" d="M30.21,61.15c-6.69,0-13.23-2.31-18.42-6.5-5.12-4.13-8.73-9.91-10.19-16.29-.02-.1.04-.2.14-.22.1-.02.2.04.22.14,3.02,13.25,14.64,22.5,28.25,22.5,3.54,0,7-.63,10.28-1.88.09-.04.2.01.24.11.04.09-.01.2-.11.24-3.32,1.26-6.83,1.9-10.41,1.9Z"/>
  <circle class="cls-1" cx="1.28" cy="32.75" r="1.28"/>
  <circle class="cls-1" cx="45.6" cy="56.55" r="1.28"/>
  <circle class="cls-1" cx="43.77" cy="6.2" r="1.28"/>
  <path class="cls-1" d="M13.42,61.56c1.17.18,2.37-.37,2.55-1.55.34-1.61-1.09-3.12-2.56-3.17-1.55.18-2.85,1.68-4.54,1.56,1.13,1.65,2.72,2.73,4.55,3.15h0Z"/>
  <path class="cls-1" d="M14.91,59.89c-.49,0-.82-.07-.85-.08-.13-.03-.21-.16-.18-.3.03-.13.16-.21.3-.18h0s1.89.42,3.58-.94c.11-.09.26-.07.35.04.09.11.07.26-.04.35-1.15.93-2.37,1.11-3.15,1.11Z"/>
  <path class="cls-1" d="M17.15,63.44c-.06-.31-.16-.61-.26-.89-.13-.36-.24-.71-.24-1.02.11-.47.62-.87,1.11-.87.11,0,.22.02.33.06h.01s.01,0,.01,0c.17.06.29.17.36.35.07.19.07.43,0,.66-.28.68-.73,1.26-1.33,1.69M16.66,64.3c1.08-.51,1.87-1.35,2.29-2.39.22-.68,0-1.43-.67-1.65-.17-.06-.34-.09-.5-.09-.76,0-1.47.6-1.6,1.31-.04.93.73,1.84.5,2.82h0Z"/>
  <path class="cls-1" d="M18.03,60.69c-.07,0-.13-.03-.18-.08-.08-.09-.09-.22-.02-.31.01-.05.04-.35-.44-1.19-.07-.12-.03-.27.09-.34.12-.07.27-.03.34.09.68,1.19.53,1.61.38,1.75-.05.05-.11.07-.17.07ZM17.83,60.31h0ZM17.86,60.26s0,0,0,0c0,0,0,0,0,0ZM17.86,60.26s0,0,0,0c0,0,0,0,0,0Z"/>
  <path class="cls-1" d="M23.11,62.94c.61-.21,1.04-.78.83-1.39-.25-.86-1.32-1.22-2.03-.87-.7.48-.94,1.53-1.78,1.9.96.51,2,.62,2.98.36h0Z"/>
  <path class="cls-1" d="M22.93,62.05c-.12,0-.22-.09-.24-.21-.02-.13.07-.26.2-.28.04,0,.75-.15,1.19-1.16.05-.13.2-.18.32-.13.13.05.18.2.13.32-.55,1.27-1.52,1.44-1.56,1.45-.01,0-.03,0-.04,0Z"/>
  <path class="cls-1" d="M12.85,2.36c-.74.92-.86,2.24.07,2.98,1.22,1.1,3.25.62,4.02-.63.62-1.43-.04-3.31.91-4.71-2,.15-3.72.99-5,2.36h0Z"/>
  <path class="cls-1" d="M13.18,7.98c-.12,0-.22-.09-.24-.21-.37-2.39,1.05-3.92,1.11-3.98.09-.1.25-.1.35-.01.1.09.1.25.01.35-.02.02-1.31,1.43-.98,3.57.02.13-.07.26-.21.28-.01,0-.03,0-.04,0Z"/>
  <path class="cls-1" d="M9.36,4.65c.3.11.61.17.9.22.38.07.73.14,1,.3.35.33.44.97.2,1.4-.06.1-.13.18-.22.25h-.01s-.01.02-.01.02c-.13.12-.3.17-.49.13-.2-.03-.41-.15-.57-.33-.45-.58-.72-1.26-.8-2M8.86,3.79c-.1,1.19.24,2.29.93,3.17.48.53,1.24.72,1.76.24.14-.11.25-.24.33-.39.38-.66.22-1.57-.33-2.04-.79-.5-1.96-.29-2.69-.98h0Z"/>
  <path class="cls-1" d="M12.98,7.52h0c-1.38,0-1.66-.34-1.71-.55-.03-.13.05-.27.18-.3.12-.03.23.03.28.13.04.03.28.21,1.25.22.14,0,.25.11.25.25,0,.14-.11.25-.25.25ZM11.75,6.85s0,0,0,0c0,0,0,0,0,0ZM11.75,6.85s0,0,0,0c0,0,0,0,0,0ZM11.75,6.85s0,0,0,0c0,0,0,0,0,0Z"/>
  <path class="cls-1" d="M6.81,10.06c-.12.63.16,1.29.79,1.41.87.22,1.72-.53,1.77-1.33-.06-.85-.86-1.58-.76-2.49-.92.58-1.53,1.42-1.8,2.41h0Z"/>
  <path class="cls-1" d="M8.32,12.56c-.08,0-.15-.03-.2-.1-.82-1.11-.49-2.03-.48-2.07.05-.13.19-.19.32-.14.13.05.19.19.15.32-.01.03-.24.73.41,1.61.08.11.06.26-.05.35-.04.03-.1.05-.15.05Z"/>
  <path class="cls-1" d="M64.4,31.46c-.43-1.11-1.51-1.86-2.61-1.43-1.56.51-2.16,2.5-1.46,3.8.93,1.26,2.88,1.62,3.62,3.15.87-1.8,1-3.72.45-5.51h0Z"/>
  <path class="cls-1" d="M62.33,32.11c-.11,0-.2-.07-.24-.18h0s-.58-1.85-2.6-2.63c-.13-.05-.19-.19-.14-.32.05-.13.19-.19.32-.14,2.25.87,2.87,2.86,2.89,2.95.04.13-.04.27-.17.31-.02,0-.05.01-.07.01Z"/>
  <path class="cls-1" d="M64.17,27.3c-.24.21-.45.44-.64.67-.25.29-.49.56-.76.72-.46.14-1.06-.1-1.31-.53-.06-.1-.09-.2-.11-.31h0s0-.03,0-.03c-.04-.18,0-.34.13-.49.13-.16.34-.28.57-.33.73-.1,1.46,0,2.13.3M65.16,27.29c-.98-.68-2.1-.94-3.21-.79-.69.15-1.24.71-1.09,1.41.03.18.09.34.17.48.38.66,1.25.97,1.93.74.83-.43,1.23-1.55,2.2-1.84h0Z"/>
  <path class="cls-1" d="M60.08,29.37s-.09-.01-.12-.03c-.12-.07-.16-.22-.09-.34.69-1.19,1.13-1.27,1.33-1.21.13.04.21.18.17.31-.03.11-.14.19-.26.18-.05.01-.32.13-.81.97-.05.08-.13.12-.21.12ZM61.12,28.27h0ZM61.06,28.26h0,0ZM61.06,28.26h0,0ZM61.06,28.26s0,0,0,0c0,0,0,0,0,0Z"/>
  <path class="cls-1" d="M60.75,22.38c-.49-.42-1.2-.51-1.62-.02-.62.64-.4,1.75.26,2.19.76.37,1.8.05,2.54.59-.04-1.09-.46-2.04-1.18-2.76h0Z"/>
  <path class="cls-1" d="M59.86,23.35c-.07,0-.14-.03-.19-.09-.02-.03-.51-.58-1.6-.45-.14.02-.26-.08-.27-.22-.02-.14.08-.26.22-.27,1.37-.16,2.01.59,2.03.62.09.11.07.26-.03.35-.05.04-.1.06-.16.06Z"/>
  <path class="cls-1" d="M52.63,32.54c-3.19-4.89-7.94-6.51-12.07-.73-2.15,2.32-.69,4.53,1.08,6.12,2.52,2.92,6.41-.93,4.38-1.08-.95.8-2.03.07-2.56-.72-1.86-5.38,6.91-6.74,8.69-2.14,2.68,9.13-9.51,13.44-14.5,5.96-6.26-8.32,3.44-14.41,1.74-22.51-.54-7.94-14.44-13.21-18.42-3.72-2.63,5.21-1.68,10.13,5.4,10.81,3.08.7,4.27-1.67,4.76-3.99.53-1.96-.65-4.42-3.04-3.94-1.18.56,1.92,1.19.57,3.28-3.73,4.29-9.28-2.62-6.2-6.46,6.56-6.88,16.39,1.52,12.41,9.58-4.07,9.58-14.2,4.22-20.36,9.75-6.61,4.43-4.22,19.11,5.99,17.81,5.83-.33,9.61-3.61,6.67-10.08-.93-3.02-3.58-2.86-5.84-2.12-3.76.69-2.42,6.02-1.25,4.33-.19-1.23.88-1.76,1.92-1.86,0,0,0,0-.01,0,8.52,3.5-2.67,13.56-7.06,5.46-6.43-10.3,9.82-16.75,16.27-8.65,10.43,19.98,28.91,4.25,21.44-5.08ZM32.31,35.6s-.06-.09-.09-.14c-1.07-1.63-2.53-3.03-4.22-4.05,2-.09,4-.66,5.77-1.64-.93,1.78-1.43,3.8-1.47,5.82Z"/>
  <path class="cls-1" d="M30.89,40.64c1.61,2.46,2.71,5.42,2.51,8.41-.21,1.96-.87,4.12-2.46,5.42-1.56,1.22-3.71,1.5-5.56.9-.44-.15-.87-.34-1.29-.62-.14-.09-.15-.3-.03-.41.18-.17.37-.32.55-.46,1-.8,2.07-1.51,3.01-2.32.83-.78,1.87-1.15,2.4-2.2,1.24-2.59.97-5.74.5-8.56-.06-.22.25-.36.38-.17h0Z"/>
  <path class="cls-1" d="M39.99,54.43c-1.51.24-3.07.16-4.4-.81-.72-.51-1.4-1.4-1.32-2.34.06-.87.51-1.69,1.26-2.13,0,0,.19.07.19.07.09.21.13.4.18.58.1.33.16.63.26.95.09.36.23.68.27,1.03.16,1.33,2.37,2.13,3.57,2.45,0,0,0,.2,0,.2h0Z"/>
</svg>