<?xml version="1.0" encoding="UTF-8"?>
<svg id="Logo_1" data-name="Logo 1" xmlns="http://www.w3.org/2000/svg" viewBox="0 0 156.88 94.29">
  <path d="M88.3,53.86c-1.42,0-2.56,1.15-2.56,2.54l-.04,11.44c0,1.39-1.14,2.55-2.56,2.54s-2.55-1.17-2.54-2.56-1.12-2.56-2.54-2.56-2.53,1.12-2.53,2.54c0,1.39-1.17,2.55-2.56,2.54s-2.55-1.17-2.54-2.56l.04-11.44c0-1.39-1.12-2.56-2.54-2.56s-2.53,1.15-2.53,2.54l-.06,15.86c0,.16,0,1.26,0,1.66-.03,7.03,5.64,12.76,12.69,12.78,7.03.03,12.76-5.66,12.78-12.69v-.68s.06-16.84.06-16.84c0-1.39-1.15-2.56-2.54-2.56Z"/>
  <path d="M137.9,73.2c-15.33-1.21-27-6.6-27.37-13.07-.03-.11-.03-.24-.03-.34s0-.24.03-.34v-4.1c0-1.18-.97-2.16-2.16-2.16h-.68c-1.21,0-2.16.97-2.16,2.16l-.03,6.31c0,.08,0,.18-.03.26-.13,1.18-1.16,2.16-2.39,2.13h-.18c-1.34,0-2.42-1.1-2.42-2.42l.11-26.53c0-1.39-1.13-2.52-2.5-2.52-1.39-.03-2.5,1.1-2.5,2.5l-.03,9.23c0,1.37-1.16,2.5-2.55,2.5-1.1,0-2.08-.74-2.34-1.76v-4.34c0-.26-.05-.5-.13-.74-.29-1.03-1.24-1.79-2.37-1.79-1.39,0-2.55,1.13-2.55,2.5v1.47c0,1.42-1.13,2.52-2.5,2.52-1.31-.03-2.34-1-2.47-2.26l.08-20.4-.03-.24v-.08c0-.08,0-.13-.03-.18-.18-1.18-1.21-2.08-2.45-2.08s-2.23.87-2.47,2v.08c-.03.16-.05.32-.05.5l-.08,20.32c-.24,1.13-1.26,1.97-2.47,1.97-1.37,0-2.5-1.13-2.5-2.5v-1.24c0-1.37-1.08-2.5-2.47-2.5-1.16-.03-2.13.74-2.42,1.79-.08.21-.11.45-.11.68v4.23c-.29,1.08-1.26,1.87-2.42,1.87-1.39,0-2.47-1.13-2.47-2.52l.03-9.23c0-1.37-1.13-2.52-2.52-2.52s-2.5,1.13-2.5,2.5l-.11,26.53c0,1.34-1.08,2.45-2.39,2.45h-.21c-1.21-.03-2.21-.97-2.39-2.16-.03-.11-.03-.21-.03-.32l.03-6.28c0-1.21-.95-2.18-2.16-2.18h-.68c-1.18,0-2.18.97-2.18,2.18v4.5c-.03,6.63-11.83,12.07-27.45,13.2.34-32.71,27.06-59.19,59.84-59.19s59.71,26.71,59.84,59.61Z"/>
  <path d="M144.39,73.47h-.34c-1.08,0-2.16-.03-3.23-.08-.05-34.6-28.19-62.68-62.76-62.68S15.58,38.55,15.32,72.91c-1.08.05-2.18.08-3.29.08h-.32c.03-9.6,2.08-18.69,5.78-26.9C27.92,22.9,51.24,6.79,78.29,6.89c27.06.11,50.27,16.38,60.45,39.62,3.68,8.26,5.68,17.35,5.65,26.95Z"/>
</svg>