<?xml version="1.0" encoding="UTF-8"?>
<svg id="Calque_1" data-name="Calque 1" xmlns="http://www.w3.org/2000/svg" viewBox="0 0 516.57 829.71">
  <defs>
    <style>
      .cls-1 {
        fill: #fff;
      }
    </style>
  </defs>
  <rect class="cls-1" width="516.57" height="829.71" rx="32.84" ry="32.84"/>
  <path d="M72.42,70.2v687.83h371.73V70.2H72.42ZM425.65,147.76c3.26,35.33-2.6,85.18-33.34,144.79l-.23.79c-.88,1.71-8.96,36.62,17.73,52.1.22.23.3.35.3.35.01.09.02,4.43-11.4,13.94-7.34,6.09-15.13,10.69-15.19,10.74l-2.85,1.67c-3.21,10.71-7.34,21.87-13.15,33.87-30.2-25.14-63.48-45.94-99.4-62.11,6.53-12.03,14.66-27.5,20.24-35.52,9.77-14.19,18.6-29.19,25.79-43.4,2.59.08,5.37-.1,7.7-.4,20.32,24.39,46.06,25.75,62.82,24.71l-1.59-12.9c-1.54.18-37.97,4.15-55.51-26.52l-1.22.7h-.01c-1.44.38-3.49.78-5.73,1.06,3.79-8.21,7.17-16.29,10.17-24.18l.57.25c17.55-40.47,52.74-69.6,94.3-79.94ZM334.61,148.36c-8.89,52.55-27.14,101.7-60.26,150.38-5.39,7.84-11.54,19.23-18.06,31.29-9.23,17.07-20.3,37.83-31.76,51.9-10.79-13.54-19.75-28.76-26.26-44.91h0c-1.21-2.95-2.33-5.93-3.37-8.94v-.08c-7.68-22.06-10.96-45.41-9.83-68.99,6.92-3.71,15.89-13.48,23.46-26.31,11.08-18.77,14.99-36.99,8.72-40.68-4.44-2.62-12.79,2.75-21.23,12.79,22.61-61.59,77.23-107.28,143-115.71.29,11.49-.08,32.59-4.41,59.26ZM270.75,633.61c-7.66-12.57-16.67-24.2-26.74-35.15.15-.15,34.19-34.19,34.37-34.37,12.82,13.89,24.27,29.13,34.11,45.48l-41.7,24.02-.04.02ZM232.3,586.13c-11.32-10.71-23.56-20.09-36.52-28.07,14.1-5.2,24.24-19.05,33.02-36.38,13.42,8.96,26.02,19.1,37.67,30.28l-34.17,34.17ZM89.4,87.2h191.91c-113.76,51.82-151.75,202.81-72.29,304.1-38.32-14.1-78.44-21.75-119.6-22.64-.13-.01-.25-.01-.38-.01l.36-281.45ZM88.91,476.76c.04-28.2.08-61.89.11-90.1.13-.01.26,0,.4,0,44.14,1.05,86.35,10.27,125.23,26.25-.3,13.39-.84,39.64-1.12,53.05,3.61,11.29,7.51,17.65,9.3,25.61,1.4,8.5-4.24,14.19-8.46,21.12-13.3,26.42-24.89,38.04-53.39,27.83l-49.85-22.96-.71-.29c-12.92-4.55-21.56-17-21.52-30.42,0,0,0-10.09,0-10.09ZM249.39,741.03c-7.1-85.76-75.33-153.73-159.97-158.18v-39.03c106.5,4.28,190.69,92.55,196.27,197.21h-36.3ZM295.17,689.55c-4.04-14.21-9.44-27.96-16.13-41.09.11-.06,41.63-23.99,41.78-24.07,8.69,16.62,15.78,34.24,21.07,52.64l-45.98,12.32-.74.2ZM303.73,741.03c-.63-11.85-2.14-23.53-4.51-34.97l.97-.26,45.9-12.3c3.44,15.4,5.64,31.28,6.47,47.53h-48.83ZM427.15,741.03h-9.15c-3.88-120.73-75.82-236.5-183.14-291.81-.15-8.9.46-17.8,1.77-26.4,92.26,45.12,163,131.18,190.52,230.91v87.3ZM427.15,466.22c-14.07-17.27-29.78-33.74-46.38-48.73,7.21-14.05,12.05-27.65,14.17-34.07,14.5-8.87,48.93-34.72,22.73-53.29-13.93-8.77-10.34-27.53-9.42-31.42,7.48-14.69,13.77-29.29,18.9-43.71v211.22Z"/>
</svg>