<?xml version="1.0" encoding="UTF-8"?>
<svg xmlns="http://www.w3.org/2000/svg" viewBox="0 0 303.38 338.91">
  <defs>
    <style>
      .cls-1 {
        fill: #0f0906;
      }

      .cls-2 {
        fill: #fff;
      }
    </style>
  </defs>
  <rect width="303.38" height="338.91"/>
  <g id="Calque_1" data-name="Calque 1">
    <g>
      <path class="cls-2" d="M303.36,196.47c.22-5.11-1.39-10.01-4.41-13.69-2.65-17.18-15.3-27.97-34.7-29.76-.93-2.38-2.68-4.34-4.91-6.04,6.22-11.72-1.45-19.37-15.66-22.89-.04-.92-.12-1.84-.26-2.76,11.93-3.48,23.34-14.34,15.73-24.15,29.4-31.29,2.69-62.89-27.86-6.21-.14-.16-.28-.32-.42-.48,1.28-1.64,2.19-3.45,2.48-5.31,6.77-6.97,7.91-10.54,4.17-16.13-.18-4.34-4.67-8.13-9.08-7.45,4.04-4.71,11.1-15.11,7.13-21.99,1.98-6.85.68-12.46-5.28-14.84-1.06-9.09-13.16-11.05-17-2.76-12.23,1.39-10.32,22.2-11.12,31.25l-1.37.73c-.47,1.4-1.41,3.83-1.67,5.24-.22.05-.43.1-.64.16.67-1.76.92-3.36.66-5.08,1.95-3.5,2.77-7.03,1.57-10.56,1.34-3.71,2.21-8.65-.25-12.17,1.7-14.51-17.87-25.17-20.23-6.03-.9,1.21-2.61,4.07-1.77,10.73-.14.27-.27.54-.39.82-1.34-6.28-7.3-9.7-12.33-7.61.4-4.28.01-10.54-3.09-15.33C154.66,3.18,150.94,0,146.08,0c-4.62.19-8.12,3.07-8.72,8.11-5.39-3.04-12.39-4.83-16.67.11-5.32.96-10.41,4.98-13.86,10.72-9.55-1.6-19.61,3.77-19.5,13.33-6.74,1.69-10.55,10.43-6.19,16.12-.4.55-.72,1.1-.99,1.65-8.91-3.09-19.19,4.91-18.14,14.23C7.88,47.58-26.55,93.88,26.36,88.78c5.67,4.9,20.52-1.08,33.51-4.12.06.6.15,1.22.3,1.87-1.82,0-4.39.1-6.82.48-3.2.51-11.69,1.88-14.79,9.27-.03.07-.06.15-.09.23-1.18,3.19-.42,6.7,1.94,8.95.21.2.43.38.67.55,2.9,2.05,6.63,3.05,11.41,3.05.45,0,.9,0,1.35-.03-5.79,2.47-10.74,6.29-12.52,12-1.92,8.11,7.88,13.31,13.92,12.49,2.02,0,4.04-.19,6.04-.48-.67,3.29.45,6.92,2.8,9.18-8.17,17.59-11.48,39.18-20.22,55.82-11.4,27.62,1.27,59.79,1.86,88.05h.65c1.39,6.32,3.96,12.6,7.53,18.36-.13,5.72,3.5,11.51,8.72,13.91,1.98,4.2,6.16,7.45,10.67,8.41,3.49,7.55,12.94,11.68,20.88,9.18,5.34,3.83,13.78,3.95,19.25.3,4.57,1.65,10.35.84,14.18-1.93,5.14,1.38,11.14-.28,14.73-3.86,3.92.06,7.58-1.45,10.22-3.98,6.78-.64,12.25-6.08,12.83-12.9-1.1-21.01,25.3-18.15,38.83-10.57,16.59,8.85,28.84-7.98,36.46-19.69,9.51-3.19,18.66-9.08,27.84-17.94,10.05-.45,18.48-11.11,16.69-21.05.18-.3.37-.6.55-.91,14-2.96,21.11-22.76,12.29-33.98,3.17-3.39,5.1-8.01,5.32-12.97Z"/>
      <g>
        <path class="cls-2" d="M241.86,163.72c-33-56.12-146.42-50.84-158.84-35.75,0,0,26.5,72.3,157.94,37.86l.9-2.11Z"/>
        <path class="cls-1" d="M232.36,108.99c-6.44,4.39-4.35,3-4.51,3.36,20.07,10.61,43.64-25.16,4.51-3.36Z"/>
        <path class="cls-1" d="M221.26,103.04c.59,3.25,2.23,6.25,4.83,8.28,1.12.87,2.08,1.27,2.31.61,3.87-11.22-10.63-28.12-7.14-8.89Z"/>
        <path class="cls-1" d="M237.55,104.83c40.47-25.89,32-69.85-6.38,2.45,1.41.47,3.68-1,6.38-2.45Z"/>
        <path class="cls-1" d="M173.85,153.56c-.12,0-.25,0-.37-.01-5.97-.37-10.27-4.94-14.51-9.99l3.69-3.1-.89-4.29c.5-.1.96-.23,1.41-.34,1.38-.37,2.67-.59,3.9-.59,3.83,0,7.2,2.15,11.72,8.89,1.29,1.93,1.38,4.39.21,6.42-1.08,1.88-3.04,3.02-5.17,3.02Z"/>
        <path class="cls-1" d="M165.39,143.32l-3.14-3.06-4.6,1.44c-1.98-6.3-3.51-12.38-.61-17.6,1.06-1.9,3.04-3.06,5.22-3.06.1,0,.2,0,.3,0,2.33.11,4.36,1.5,5.29,3.63,4.3,9.85,2.89,13.67-1.42,17.64-.34.31-.69.64-1.05,1Z"/>
        <path class="cls-1" d="M233.4,105.65c-2.17,4.12-5.38,7.68-9.18,10.76-2.06,1.67-4.3,3.21-6.64,4.61-7.13,4.28-15.21,7.38-22.21,9.63-4.23,1.37-10.47,2.87-14.85,3.94-9.69,2.63-18.9,6.8-27.22,12.29-8.17,5.46-15.77,12.08-21.64,19.95l-4.87-3.51c6.68-8.23,15.03-14.9,24.05-20.35,8.97-5.37,18.77-9.27,28.9-11.54,9.82-1.88,20.02-4.28,29.2-8.22,1.02-.45,2.05-.92,3.07-1.42,4.33-2.04,8.66-4.44,12.43-7.43,3.2-2.54,6-5.51,8.05-9.07l.91.36Z"/>
        <path class="cls-1" d="M289.22,211.78c.44-2.11.81-4.24,1.12-6.37,6.12-4.13,6.58-14.35.83-19.01-2.14-25.28-27.85-28.51-48.31-23.9-21.58-36.01-73.45-43.82-94.82-45.5-30.51-2.4-59.58,2-66.18,10.02l-.54.66.29.81c.02.05.08.22.18.46-17.08,18.73-18.81,49.5-30.72,72.18h0c.27.54.55,1.1.83,1.71,1.68,3.59,2.16,7.67,1.02,11.46-.07.26-.16.5-.24.72-.15.47-.44,1.05-.86,1.67-1.24,1.88-2.88,3.41-4.78,4.57-.11,3.04-.06,6.13.11,9.24.2,3.73.57,7.5,1.03,11.26,1.6,12.94,4.3,25.7,4.91,36.31h.02c.56,8.11,3.6,16.76,8.93,24.44-1.43,4.55,2.22,9.41,6.99,9.3-.19,5.13,5.72,8.93,10.32,6.61.15.11.17.12.32.23-1.2,8.55,10.46,13.55,15.88,7.01,2.79,7,13.83,7.01,16.62,0q.07,0,.14-.01c2.95,5.38,11.82,4.22,13.23-1.8,3.37,5.04,11.97,3.27,13-2.78,3.27,2.84,8.85,1.08,9.91-3.1,3.7,1.75,8.25-.73,8.76-4.81-.56-25.1,27.06-29.49,50.54-17.25,13.83,6.61,20.57-11.2,28.14-19.54,11.43-3.26,21.13-10.77,29.29-19.13,7.82,1.55,14.49-7.01,11.2-14.21,1.48-2.28,2.92-4.58,4.2-6.98,12.14-.09,17.87-16.61,8.64-24.26ZM68.29,247.06c-24.48-3.35-4.6-63.43,16.89-49.26-18.91,6.62-27.69,32.28-16.38,49.26h-.51ZM71.95,246.43c-11.19-16.05-3.39-40.06,15.27-46.21,8.62,11.23-1.58,42.67-15.27,46.21ZM84.95,276.14c-6.61-1.48,6.31-36.37,10.42-33.81.6.72,1.53,1.96,2.61,3.54-.11.18-.22.36-.33.55-3.95,6.74-8.31,19.47-8.33,26.52,0,.23.01.45.02.67-1.81,1.87-2.41,3.35-4.38,2.53ZM99.47,249.22c.11-.21.21-.41.32-.61.13.2.26.4.39.61,4.46,7.22,9.67,17.88,7.57,24.27-1.44-1.21-3.33-2.73-3.43-2.81l-.44-.35-10.34.39-.02.03s0-.01,0-.01c-.02-.03-.31.04-.38.07-.27.1-.5.23-.73.35.01-.12.01-.23.03-.35.68-6.42,4.14-16,7.04-21.59ZM95.94,274.41c-.2-.24-.4-.49-.6-.75l7.52-.29c.75.6,2.29,1.85,3.33,2.75-.29.31-.6.6-.97.86-.29.23-.61.43-.96.6-.17.1-.35.19-.54.27-1.78.56-3.76.01-5.61-1.38-.75-.55-1.49-1.25-2.18-2.06ZM160.28,264.96c-33.38,3.46-51.93-42.87-17.81-56.76-18.62,18.55-6.28,53.88,19.97,56.52-.71.11-1.43.18-2.16.24ZM186.45,245.28c-16.24,43.1-74.8-4.98-38.43-38.65,22.02-5.09,46.02,17.38,38.43,38.65ZM211.89,173.55c5.42-.87,11.06-1.95,16.94-3.25-4.75,1.63-10.49,2.7-16.94,3.25ZM236.08,165.51c-19.12,4.73-35.89,7.13-50.54,7.82-30.58-2.52-66.01-12.17-86.39-25.62-9.13-8.67-13.23-16.84-14.37-19.42,6.42-6.02,32.48-10.7,63.02-8.3,20.75,1.63,70.85,9.13,92,43.26-1.39.37-2.75.78-4.06,1.22,0,0,.13.39.34,1.04ZM274.99,209.13c-8.69,2.88-11.95,15.24-5.65,22.04-.81,1.89-1.71,3.76-2.67,5.59-7.06-.01-12.11,7.69-9.34,14.16-4.11,4.99-8.62,9.54-13.79,13.32,16.17-29.23,15.77-57.87,7.06-81.63,7.98-2.11,20.38-5.82,23.55,4.48-4.93,4.73-4.31,13.99,1.16,18.02-.11,1.5-.23,2.86-.32,4.02Z"/>
        <path class="cls-2" d="M186.45,245.29c-16.24,43.1-74.8-4.98-38.43-38.65,22.02-5.09,46.02,17.38,38.43,38.65Z"/>
        <path class="cls-2" d="M71.95,246.44c-11.19-16.05-3.39-40.06,15.27-46.21,8.62,11.23-1.58,42.67-15.27,46.21Z"/>
        <path class="cls-1" d="M222.23,150.35c5.26-7.29-27.06-.04-29.66.67-14.51,3.21-29.02,8.83-39.76,19.27-2.47,2.46-4.8,5.12-6.44,8.19,0,0-5.36-2.69-5.36-2.69.31-.54.6-1.02.92-1.49,9.08-12.65,24.06-19.85,38.68-23.76,4.84-1.35,45.79-9.93,43.21-.91-.2.56-.5.98-.89,1.4l-.7-.68h0Z"/>
        <path class="cls-1" d="M186.96,39c2.36,8.06,1.87.78,2.81-4.28.03,3.66-1.76,14.07,1.7,9.84,1.49-2.23,4.31-11.36.57-7.86-.11-2.58,1.45-11.92-1.75-10.02-.08-.11-.37-3.32-1.21-3.45-1.4-.03-1,5.77-.94,6.95-3.16-2.05-1.87,6-1.18,8.82Z"/>
        <path class="cls-1" d="M222.6,77.82c-5.36,14.88,17.59-10.4,4.89-1.85-.43-.49,5.15-11.79-1.04-3.26-1.2,1.62-.42.3-.44.09.66-6.11-3.18,2.93-3.4,5.02Z"/>
        <path class="cls-1" d="M185.78,58.05c-3.17,10.24,10.76-5.59,2.84-2.92-.56.19-1.08.48-1.51.88-.13.12-.26.25-.4.39-.44.46-.74,1.05-.93,1.66Z"/>
        <path class="cls-1" d="M131.49,76.78s0,0,0,0c0,0,.03.04.13.03,0,0,0,0,0,0"/>
        <path class="cls-1" d="M70.62,93.66c.71-.03.19-.26.19-.31-.06.1-.12.2-.19.31Z"/>
        <path class="cls-1" d="M215.99,39.43c-.06.01-.12.03-.18.04.02.43-.04.7.18-.04Z"/>
        <path class="cls-1" d="M221.16,40.03c-.07.02-.13.04-.19.06-.11.91.18-.05.19-.06Z"/>
        <path class="cls-2" d="M162.53,140.52c3.13-3.2,6.2-3.85,1.67-14.24-.66-1.52-2.84-1.7-3.65-.24-2.04,3.67-.97,8.42.93,14.46"/>
        <path class="cls-1" d="M216.82,120.36c2.94-3.38,5.97-4.2.85-14.31-.75-1.48-2.93-1.53-3.65-.03-1.83,3.78-.49,8.46,1.75,14.39"/>
        <path class="cls-2" d="M162.59,140.08c4.38-.91,6.58-3.14,12.9,6.27.93,1.38-.1,3.3-1.76,3.2-4.19-.26-7.62-3.72-11.69-8.57"/>
        <path class="cls-1" d="M129.66,132.78s.06-.06.09-.12c-.03.04-.06.08-.09.12Z"/>
        <path class="cls-1" d="M127.88,135.28c.09.02.12-.11.15-.23-.05.07-.1.15-.15.23Z"/>
        <path class="cls-1" d="M128.76,134.01s.07-.07.12-.15c0,0,0,0,0,0-.04.06-.08.11-.11.16Z"/>
        <path class="cls-1" d="M224.63,44.84c7.55-14.91,1.87-16.59-3.48-4.81,3.27-14.91.28-25.19-5.17-.61-2.18-18.04-4.42-6.72-5.67,5.06-.86,11.97-.73,24.4,10.87,12.97,5.07-4.48,11.91-19.1,3.45-12.61Z"/>
        <path class="cls-1" d="M63.28,114.36c-4.38,1.17-13.52,4.6-14.29,8.3-.19,1.86,2.51,2.63,4.29,2.79,7.73.56,16.46-2.72,23.2-4.79,2.46-.86,8.17-4.09,8.17-4.09,0,0-3.3-2-7.13-2.76-5.25-1.04-8.37-1-13.98.48l-.26.07ZM73.69,116.51s0,0,0,0c0,0,0,0,0,0Z"/>
        <path class="cls-2" d="M55.9,121.5c4.7-2.63,13.62-5.09,18.42-4.36-5.87,1.84-12.38,4.14-18.42,4.36Z"/>
        <path class="cls-1" d="M178.61,135.35c-1.34.35-1.19.51-1.78.76,6.48,5.69,25.73,4.96,28.47,1.55,2.98-3.72-5.04-7.92-26.68-2.31Z"/>
        <path class="cls-2" d="M238.76,110.11c3.24-1.64,5.69-2.66,7.52-3.29-1.9,1.39-4.51,2.74-7.52,3.29Z"/>
        <path class="cls-1" d="M221.26,103.04c.59,3.25,2.23,6.25,4.83,8.28,1.12.87,2.08,1.27,2.31.61,3.87-11.22-10.63-28.12-7.14-8.89Z"/>
        <path class="cls-2" d="M241.36,97.24c9.66-16.35,15.75-22.29,18.63-24.4-1.13,4.79-6.52,14.96-18.63,24.4Z"/>
        <path class="cls-1" d="M189.23,131.75c-3.76-.53-18.53,7.31-24.53,26.22,0,0,0,0,0,0,0,0,.01.01.02.01.08.03,1.43-.26,4.11-2.11,0,0,0,0,0,0,.41-.28.88-.61,1.43-1.02,17.14-13.74,23.55-22.61,18.95-23.1Z"/>
        <path class="cls-1" d="M172.01,124.31c-.09-.57-.67-.42-1.07-.23-9.67,4.27-23.58,31.27-19.34,41.82.42.45,1.03-.39,1.3-.84,5.04-8.48,14.76-23.15,19.12-40.67v-.08Z"/>
        <path class="cls-2" d="M157.26,149.82c1.52-4.02,3.6-8.18,5.86-11.81-1.84,4.25-3.87,8.21-5.86,11.81Z"/>
        <path class="cls-1" d="M164.53,159.55c2.13,6.81,9.74,8.28,16.25,2.97-2.86-4.87-9.74-7.24-16.25-2.97Z"/>
        <path class="cls-2" d="M172.69,161.74c-.7,0-1.33-.12-1.88-.37.25-.03.5-.04.75-.04.73,0,1.44.11,2.11.33-.33.05-.65.08-.97.08h0Z"/>
        <path class="cls-1" d="M152.38,167.08c.17.38.35.74.53,1.08,6.62,11.29,12.16,8.11,13.63,5.32,1.43-3.36-12.98-8.14-14.16-6.4Z"/>
        <path class="cls-1" d="M120.89,167.19s.08-.05.18-.23c-.06.08-.12.15-.18.23Z"/>
        <path class="cls-1" d="M210.28,100.79c.07-.04.46.07.86-.32-.03-.5-.82.32-.86.32Z"/>
        <g>
          <path class="cls-1" d="M187.99,102.84c-3.72.29-11.28,10.8-12.47,13.08.85,3.57,16.73-11.47,12.47-13.08Z"/>
          <path class="cls-1" d="M180.19,115.49c-1.6.46-3.5,1.42-4.77,2.5,6.87,7.72,25.91-8.6,4.77-2.5Z"/>
          <path class="cls-1" d="M210.5,89.15c-2.82.85-7.15,10.46-7.75,12.47,1.15,2.69,11.25-11.91,7.75-12.47Z"/>
          <path class="cls-1" d="M206.28,100.5c-1.17.64-2.49,1.71-3.32,2.78,6.36,4.98,18.7-11.16,3.32-2.78Z"/>
          <path class="cls-1" d="M195.91,107.59c-.91.17-1.92.49-2.88.89,3.75-2.68,9.88-11.48,6.45-12.15-3.5.68-8.25,10.46-8.85,12.53.18.32.49.42.88.36-.26.15-.52.3-.75.46,5.83,8.6,27.3-6.31,5.16-2.1Z"/>
          <path class="cls-1" d="M173.83,108.23c-3.73.25-11.39,10.68-12.61,12.95.81,3.58,16.85-11.29,12.61-12.95Z"/>
          <path class="cls-1" d="M166.3,120.88c-1.65.24-3.66.92-5.07,1.82,5.75,8.59,26.85-4.97,5.07-1.82Z"/>
          <path class="cls-1" d="M152.67,113.55c-5.11,1.28-13.11,17.69-14.23,21.15,2.03,4.76,20.53-19.92,14.23-21.15Z"/>
          <path class="cls-1" d="M144.84,132.98c-2.12,1.02-4.53,2.8-6.04,4.6,11.38,9.1,33.97-18.11,6.04-4.6Z"/>
          <path class="cls-1" d="M223.2,83.3c-2.27.86-4.78,4.16-6.41,6.36,3.05,1.56,12.72-7.6,6.41-6.36Z"/>
          <path class="cls-1" d="M220.92,82.59c2.52-7.62-3.58-1.46-4.29,3.73-1.13,4.8,2.77-.32,4.29-3.73Z"/>
          <path class="cls-1" d="M216.23,86.33c-3.62-2.08-4.1,7.11-4.55,7.89,2.71-1.59,4.15-5.26,4.55-7.89Z"/>
          <path class="cls-1" d="M218.35,90.52c-2.43.76-4.15,1.95-6.4,4.57,1.1,3.26,13.39-4.21,6.4-4.57Z"/>
        </g>
        <path class="cls-1" d="M80.5,102.02c4.34,8.61,8.26,16,14.49,23.41,5.45,7.13,8.36,20.98,7.39,29.85-.72,3.89-6.46,2.99-5.93-.95,1.46-7.78-.16-20.94-4.73-27.5-5.49-7.9-8.58-15.55-12.15-24.41-.22-.57.66-1,.94-.4h0Z"/>
        <path class="cls-1" d="M90.6,154.31c5.58-6.75,12.83-25.17,11.2-33.8-1.47-8.31-4.08-16.6-6.75-24.64-.74-1.92-1.84-3.69-2.95-5.42-5.67-8.84-15.26-15.45-26.01-15.5-.28,0-.51-.24-.5-.52,0-.27.23-.5.5-.5,4.38-.07,8.8.78,12.84,2.58,7.1,3.15,12.81,8.88,16.82,15.46,2.7,4.7,4.32,10.1,6.26,15.17,1.6,4.64,3.26,9.38,4.19,14.3,1.34,9.78-5.1,29.5-11.34,37.11-2.87,2.93-7.19-1.33-4.25-4.24h0Z"/>
        <path class="cls-1" d="M92.05,120.36s3.57-5.53,4.61-7.49c2.1-4.32,9.75-18.44,4.82-21.98-7.93.19-10.87,27.29-9.45,29.45l.03.02Z"/>
        <path class="cls-1" d="M90.96,84.41c2.88.3,7.6-12.41,7.11-20.08-.12-1.83-1.33-3.48-3.12-3.88-6.9-1.53-3.99,23.95-3.99,23.95Z"/>
        <path class="cls-1" d="M67.27,74.31c-9.02-2.93-25.86-8.65-44.59-3.57-25.17,9.79-14.76,12.2,9.45,9.39-.63.54-.99,1.14-1.05,1.81-.05.61.55,1.08,1.16.97,0,0,36.86-8,35.03-8.6Z"/>
        <path class="cls-1" d="M74.94,74.45c-.99-7.27,8.34-14.65,2.85-16.73-1.46-.55-3.11-.39-4.51.3-8.69,4.3,1.66,16.43,1.66,16.43Z"/>
        <path class="cls-1" d="M71.19,88.95c2.1,10.18,8.88-2.47,17.08-2.35,0,0-14.47-9.67-17.08,2.35Z"/>
        <path class="cls-2" d="M75.63,87.96c.77-1.98,1.68-1.98,2.23-1.98.22,0,.44.02.68.05-.58.37-1.13.75-1.66,1.1-.37.25-.81.54-1.24.83Z"/>
        <path class="cls-2" d="M17.57,77.22c1.63-.75,3.71-1.64,6.36-2.67,5.31-1.42,10.77-2.14,16.24-2.14,5.88,0,11.16.8,15.87,1.91l-14.2,2.7,2.69-2.33-12.86,1.47c-5.54.64-10.39,1.01-14.1,1.06Z"/>
        <path class="cls-2" d="M73.21,64.87c-.16-.61-.21-1.16-.08-1.59.19-.62.95-1.15,1.65-1.53-.23.46-.47.93-.67,1.32-.29.57-.6,1.17-.9,1.79Z"/>
        <g>
          <path class="cls-1" d="M115.05,108.2c.3-1.42,2.61-16.03-2.6-16.44-5.77,6.4-2.96,15.36-.05,20.14-.06,1.57.57-1.18,11.03-6.29,17.75-12.66-2.54-8.03-8.38,2.59Z"/>
          <path class="cls-1" d="M130.34,67.93c-.12.13-.22.26-.33.39-.04.74.04,1.11.23,1.24l3.98-.2c2.29-.11,4.46-1.2,5.84-3.03,3.47-4.63-6.04-2.97-9.72,1.6Z"/>
          <path class="cls-1" d="M129.49,73.84c1.63.98,6.65-.72,3.55-2.69,0,0,0,0,0,0-.19-.07-.61-.13-1.1-.17l-.36-.02c-.56-.03-1.14-.01-1.52.07,0,0,0,0,0,0-.11.02-.2.06-.27.09-1.05,1.47-.94,2.32-.29,2.71Z"/>
          <path class="cls-1" d="M135.55,57.17c-3.54-.38-4.56,3.87-6.34,4.44,1.32,1.4,11.63-2.88,6.34-4.44Z"/>
          <path class="cls-1" d="M133.92,90.51c-3.52-3.15-10.47,3.4-12.94,6.38-6.78,7.99,15.7-4.87,12.94-6.38Z"/>
          <path class="cls-1" d="M115.38,75.92c1.05,1.88,3.22,3.73,4.61,5.26,2.39,2.15,3.73,2.72,4.53,2.28.53-.29.78-1.06.74-2.06.04-3.29-4.01-9.15-9.42-9.37-.05,0-.1,0-.15,0-.39.41-.63.84-.76,1.27-.24.81-.06,1.63.34,2.45.03.06.06.12.09.18Z"/>
          <path class="cls-1" d="M128.76,68.46c.25-.49.3-1.16.15-1.94-.42-3.7-6.74-10.1-11.91-9.91-2.14,1.71,9.31,10.39,11.76,11.85Z"/>
          <path class="cls-1" d="M128.08,72.4s0,0,0,0c.14-.23.22-.54.21-.96,0,0,0,0,0,0,0-.05,0-.11,0-.16-.72-3.92-18.49-11.08-10.92-3.42,2.59,1.47,9.52,6.65,10.72,4.55Z"/>
          <path class="cls-1" d="M121.03,94.67s0,0,0,0c.15-.36.3-.68.45-.97-.04-.08-.09-.19-.14-.33,0,0,0,0,0,0-.48-2.96-5.46-16.88-9.09-8.49.44,8.67,7.07,13.8,8.78,9.8Z"/>
          <path class="cls-1" d="M128.51,78.85c-.48.5-.89.96-1.24,1.39,0,0,0,0,0,0-1.34,1.67-1.74,2.85-1.52,3.61,0,0,0,0,0,0,.9,2.98,12.12-.16,6.5-1.76,0,0,0,0,0,0,0,0,0,0,0,0-.04-.01-.09-.02-.14-.04,0,0,0,0,0,0-2.74-.8,7.15-4.04,5.32-6.96-2.35-2.99-7.32,2.7-8.91,3.76Z"/>
        </g>
        <path class="cls-1" d="M126.81,54.9c6.93,7.85,1.42,26.02-1.9,34.82-2.45,6.6-5.75,13.03-8.32,19.55-6.41,16.95-9.19,36.18-3.25,53.57,0,0-5.57,2.24-5.57,2.24-1.63-4.69-2.27-9.83-2.64-14.76-.86-15.74,2.96-31.58,9.76-45.64,2.52-5.26,5.38-10.56,7.66-15.91,2.95-6.94,5.4-14.24,6.06-21.78.06-1.63.09-3.55-.12-5.17-.29-2.09-.91-4.62-2.31-6.19l.63-.74h0Z"/>
        <path class="cls-1" d="M155.38,35.18c5.68,10.43,3.98,23.18.15,33.93-3.81,10.98-10.72,20.4-17.29,29.82-9.33,14.06-16.86,29.46-20,46.04-.94,5.28-1.56,10.76-1,16.08l-5.94.82c-.7-11.93,2.68-23.75,7.05-34.69,4.42-10.8,10.37-20.83,17.11-30.18,10.26-13.24,20.82-27.7,21.98-44.98.32-5.51-.27-11.41-2.87-16.31l.82-.53h0Z"/>
        <g>
          <path class="cls-1" d="M96.29,43.99s-.01,0,0,0c0,0,0,.01,0,.02,0,0,0,0,0,.01,0-.02,0-.02,0-.03Z"/>
          <path class="cls-1" d="M104.37,33.75c.83.03,1.68.33,2.49.7,1.28.58,2.46,1.46,3.41,2.57,1.36,1.67,2.74,3.7,2.81,6.23,0,2.19-1.24,2.86-2.73,1.7-1.74-1.4-2.87-3.42-3.89-5.27-.9-1.82-1.82-3.61-2.11-5.41-.02-.21-.02-.38.02-.52Z"/>
          <path class="cls-1" d="M96.37,44.15c.67-.24,1.53-.32,2.4-.38,1.36-.08,2.86-.02,4.3.24,2.11.44,4.46.89,6.08,2.46,1.33,1.42.79,2.83-1.09,3-2.22.18-4.37-.77-6.32-1.68-1.84-.96-3.69-2.01-5.06-3.25-.13-.17-.24-.28-.3-.39Z"/>
          <path class="cls-1" d="M96.19,56.01s-.01,0,0,0c0,0,.01,0,.02.02,0,0,0,0,.01,0-.01-.02,0-.02-.03-.03Z"/>
          <path class="cls-1" d="M132.48,36.23s.01,0,0,0c0,0-.01,0-.02-.01,0,0-.01,0-.01,0,.02.01.01.03.03.02Z"/>
          <path class="cls-1" d="M116.13,35.22c.83-2.38,1.78-4.87,3.33-7,.2-.21.36-.39.51-.53.46.68.66,1.66.8,2.68.21,1.61.17,3.47-.17,5.32-.51,2.72-1.17,5.76-2.79,7.97-1.44,1.85-2.65,1.36-2.88-.79-.25-2.52.42-5.14,1.19-7.66Z"/>
          <path class="cls-1" d="M119.2,44.97c1.5-2.36,3.72-4.11,5.9-5.65,2.12-1.39,4.42-2.79,6.6-3.18.24-.01.43-.02.57.03-.34,1.15-.98,2.31-1.66,3.43-1.08,1.75-2.36,3.38-3.73,4.68-2.06,1.88-4.27,3.76-6.54,4.01-1.97.13-2.42-1.31-1.15-3.32Z"/>
          <path class="cls-1" d="M96.35,56.15c.41-.52,1.06-.93,1.75-1.36,1.06-.64,2.31-1.25,3.63-1.75,1.98-.69,4.09-1.69,6.32-1.62,1.91.11,2.36,1.5,1.03,3.05-1.59,1.77-3.84,2.46-5.97,2.73-2.07.2-4.26.04-6.23-.78-.22-.1-.38-.2-.51-.29Z"/>
          <path class="cls-1" d="M120.18,27.53s0-.01,0,0c0,0-.02,0-.02.01,0,0-.01,0-.02.01.02-.01.03,0,.04-.02Z"/>
          <path class="cls-1" d="M104.42,33.57s0,0,0,0c0,0,0,.01,0,.02,0,0,0,0,0,.01.01-.02.02-.02.02-.03Z"/>
          <path class="cls-1" d="M94.04,49.64c-10.66,2.76-9.72,8.85,4.31,13.93-5.75,9.46,3.3,23.14,13.51,12.21,5.48,18.53,16.07,16.78,15.47-5.92,12.49,5.15,18.37-15.27,7.66-23.72,12.58-16.58,8.59-29.69-6.53-18.26,1.41-18.63-13.3-12.91-17.24.42-13.26-4.85-20.42,2.23-13.2,9.92-13.49,1.59-14.08,4.28-4,11.43ZM101.28,59.54c-2.27.25-5.09-.03-7.14-1.83-.99-.89-1.34-2.11-.9-2.94,1.28-2.19,5.11-2.6,7.86-3.34,1.51-.34,3.08-.54,4.65-.58,1.17,0,2.41-.03,3.5.48,2.4,1.26-.12,4.38-1.49,5.39-1.92,1.56-4.14,2.52-6.49,2.82ZM110.74,68.82c-1.33,2.35-3.16,4.9-5.85,4.58-1.3-.18-2.59-1.47-3-2.89-1.01-3.82,1.55-6.77,3.12-9.43.92-1.36,1.97-2.63,3.16-3.81.89-.87,1.8-1.8,2.95-2.29,2.6-1.03,2.58,3.32,2.25,5.46-.41,2.95-1.31,5.88-2.63,8.38ZM122.02,77.12c-.78,1.56-2.25,2.07-3.4,1.27-3.13-2.31-3.77-8.05-4.39-11.78-.28-2.07-.36-4.13-.25-6.13.12-1.49.21-3.01.77-4.38,1.32-3.04,3.87-.2,4.86,1.58,1.43,2.4,2.48,5.36,3.09,8.73.51,3.21.91,7.48-.69,10.71ZM134.66,56.92c.2,1.92-.53,4.3-1.7,5.43-3.17,3.02-6.64.13-9.17-1.55-1.37-1.02-2.59-2.3-3.66-3.74-.81-1.08-1.61-2.18-2.01-3.6-.78-3.17,2.83-3.85,4.56-4,2.43-.2,4.84.09,7.04,1.03,2.08,1.02,4.5,2.53,4.94,6.42ZM126.59,35.23c2.28-1.88,5.2-4.27,7.72-3.61,1.2.34,1.82,2.1,1.43,4.03-1.11,5.36-5.32,8.73-8.19,10.78-1.61,1.08-3.23,1.8-4.86,2.17-1.21.25-2.46.45-3.59,0-2.43-1.13-.06-4.77,1.22-6.54,1.79-2.43,3.9-4.76,6.26-6.83ZM118.66,24.58c1.25-1.01,2.98-1.23,3.92-.35,2.53,2.41.95,7.99-.13,11.69-.65,2.05-1.53,3.99-2.6,5.72-.81,1.26-1.66,2.55-2.8,3.29-2.55,1.5-2.88-2.66-2.97-4.52-.09-2.69.11-5.38.64-8.09.6-2.58,1.37-5.66,3.95-7.75ZM103.89,30.9c3.82-.67,6.46,2.35,7.97,4.91.81,1.39,1.32,3.02,1.56,4.76.15,1.29.25,2.67-.18,4.01-1.07,2.94-3.86.54-5.09-.57-1.75-1.6-3.3-3.37-4.69-5.13-1.23-1.76-2.81-3.65-2.39-5.74.23-1.04,1.42-1.99,2.82-2.24ZM94.15,42.23c2.53-1.42,6.57-.64,9.38.18,1.53.46,2.97,1.16,4.22,2.11.93.72,1.85,1.54,2.35,2.71.94,2.75-2.69,3.15-4.33,2.97-2.38-.16-4.71-.83-6.9-1.73-2.1-.93-4.5-2.14-5.48-3.89-.45-.87-.15-1.8.77-2.34Z"/>
          <path class="cls-2" d="M119.1,48.61c1.12.44,2.38.25,3.59,0,1.63-.36,3.26-1.08,4.86-2.17,2.86-2.06,7.08-5.42,8.19-10.78.39-1.94-.24-3.69-1.43-4.03-2.52-.66-5.44,1.73-7.72,3.61-2.36,2.07-4.46,4.4-6.26,6.83-1.28,1.77-3.66,5.41-1.22,6.54ZM125.1,39.32c2.12-1.39,4.42-2.79,6.6-3.18.24-.01.43-.02.57.03-.34,1.15-.98,2.31-1.66,3.43-1.08,1.75-2.36,3.38-3.73,4.68-2.06,1.88-4.27,3.76-6.54,4.01-1.97.13-2.42-1.31-1.15-3.32,1.5-2.36,3.72-4.11,5.9-5.65Z"/>
          <path class="cls-2" d="M118.11,53.47c.39,1.42,1.2,2.52,2.01,3.6,1.07,1.43,2.29,2.71,3.66,3.74,2.53,1.68,6.01,4.57,9.17,1.55,1.17-1.13,1.9-3.52,1.7-5.43-.45-3.89-2.86-5.41-4.94-6.42-2.2-.94-4.62-1.23-7.04-1.03-1.73.15-5.34.83-4.56,4ZM120.3,50.68c2.26-.42,4.43.42,6.34,1.6,1.78,1.22,3.52,2.79,4.57,5.2.09.29.17.53.2.76-.77.56-1.67.69-2.56.78-1.41.12-2.86-.12-4.24-.67-2.01-.9-4.21-1.85-5.64-3.93-1.17-1.83-.61-3.33,1.32-3.75Z"/>
          <path class="cls-2" d="M113.98,60.49c-.11,2-.03,4.06.25,6.13.62,3.73,1.26,9.47,4.39,11.78,1.14.8,2.62.29,3.4-1.27,1.6-3.23,1.2-7.5.69-10.71-.62-3.37-1.66-6.33-3.09-8.73-.99-1.77-3.55-4.61-4.86-1.58-.56,1.37-.66,2.9-.77,4.38ZM119.62,74.06h-.02s0-.02.02-.02v.02ZM117.61,56.18c1.54,1.93,2.23,4.89,2.6,7.9.3,2.87.41,6.08-.21,8.98-.09.32-.18.57-.26.76-.67-.59-1.22-1.6-1.74-2.6-.83-1.6-1.53-3.41-2.03-5.24-.69-2.76-1.49-5.58-1.23-8.37.28-2.38,1.53-3,2.87-1.42Z"/>
          <path class="cls-2" d="M101.89,70.51c.41,1.42,1.7,2.71,3,2.89,2.68.32,4.52-2.23,5.85-4.58,1.32-2.51,2.22-5.43,2.63-8.38.33-2.14.34-6.49-2.25-5.46-1.15.49-2.06,1.42-2.95,2.29-1.18,1.18-2.24,2.45-3.16,3.81-1.57,2.65-4.13,5.61-3.12,9.43ZM106.58,62.2c.99-2.14,1.96-4.54,3.7-6.19,1.52-1.39,2.7-.8,2.67,1.52-.11,2.73-1.26,5.34-2.57,7.46-1.32,1.98-2.86,3.79-4.77,4.55-.23.05-.41.08-.57.09-.15-.93,0-1.9.16-2.89.28-1.54.75-3.1,1.39-4.55Z"/>
          <path class="cls-2" d="M94.14,57.71c2.04,1.81,4.87,2.09,7.14,1.83,2.35-.3,4.57-1.26,6.49-2.82,1.37-1.02,3.89-4.14,1.49-5.39-1.09-.52-2.32-.49-3.5-.48-1.57.04-3.15.24-4.65.58-2.75.74-6.59,1.15-7.86,3.34-.44.83-.09,2.05.9,2.94ZM98.1,54.79c1.06-.64,2.31-1.25,3.63-1.75,1.98-.69,4.09-1.69,6.32-1.62,1.91.11,2.36,1.5,1.03,3.05-1.59,1.77-3.84,2.46-5.97,2.73-2.07.2-4.26.04-6.23-.78-.22-.1-.38-.2-.51-.29.41-.52,1.06-.93,1.75-1.36Z"/>
          <path class="cls-2" d="M93.39,44.58c.98,1.75,3.38,2.96,5.48,3.89,2.19.9,4.53,1.57,6.9,1.73,1.64.18,5.27-.22,4.33-2.97-.5-1.17-1.42-1.99-2.35-2.71-1.25-.95-2.69-1.65-4.22-2.11-2.81-.82-6.85-1.6-9.38-.18-.92.54-1.22,1.48-.77,2.34ZM98.77,43.77c1.36-.08,2.86-.02,4.3.24,2.11.44,4.46.89,6.08,2.46,1.33,1.42.79,2.83-1.09,3-2.22.18-4.37-.77-6.32-1.68-1.84-.96-3.69-2.01-5.06-3.25-.13-.17-.24-.28-.3-.39.67-.24,1.53-.32,2.4-.38Z"/>
          <path class="cls-2" d="M103.47,38.88c1.39,1.76,2.94,3.52,4.69,5.13,1.23,1.11,4.02,3.51,5.09.57.42-1.33.33-2.72.18-4.01-.24-1.74-.75-3.37-1.56-4.76-1.51-2.57-4.15-5.58-7.97-4.91-1.4.24-2.58,1.2-2.82,2.24-.42,2.1,1.16,3.99,2.39,5.74ZM106.87,34.45c1.28.58,2.46,1.46,3.41,2.57,1.36,1.67,2.74,3.7,2.81,6.23,0,2.19-1.24,2.86-2.73,1.7-1.74-1.4-2.87-3.42-3.89-5.27-.9-1.82-1.82-3.61-2.11-5.41-.02-.21-.02-.38.02-.52.83.03,1.68.33,2.49.7Z"/>
          <path class="cls-2" d="M114.07,40.41c.09,1.86.43,6.01,2.97,4.52,1.14-.75,1.99-2.03,2.8-3.29,1.07-1.73,1.95-3.67,2.6-5.72,1.08-3.7,2.66-9.28.13-11.69-.94-.88-2.67-.66-3.92.35-2.58,2.09-3.34,5.16-3.95,7.75-.53,2.7-.73,5.4-.64,8.09ZM116.13,35.22c.83-2.38,1.78-4.87,3.33-7,.2-.21.36-.39.51-.53.46.68.66,1.66.8,2.68.21,1.61.17,3.47-.17,5.32-.51,2.72-1.17,5.76-2.79,7.97-1.44,1.85-2.65,1.36-2.88-.79-.25-2.52.42-5.14,1.19-7.66Z"/>
          <path class="cls-1" d="M117.61,56.18c1.54,1.93,2.23,4.89,2.6,7.9.3,2.87.41,6.08-.21,8.98-.09.32-.18.57-.26.76-.67-.59-1.22-1.6-1.74-2.6-.83-1.6-1.53-3.41-2.03-5.24-.69-2.76-1.49-5.58-1.23-8.37.28-2.38,1.53-3,2.87-1.42Z"/>
          <path class="cls-1" d="M120.3,50.68c2.26-.42,4.43.42,6.34,1.6,1.78,1.22,3.52,2.79,4.57,5.2.09.29.17.53.2.76-.77.56-1.67.69-2.56.78-1.41.12-2.86-.12-4.24-.67-2.01-.9-4.21-1.85-5.64-3.93-1.17-1.83-.61-3.33,1.32-3.75Z"/>
          <path class="cls-1" d="M105.19,66.75c.28-1.54.75-3.1,1.39-4.55.99-2.14,1.96-4.54,3.7-6.19,1.52-1.39,2.7-.8,2.67,1.52-.11,2.73-1.26,5.34-2.57,7.46-1.32,1.98-2.86,3.79-4.77,4.55-.23.05-.41.08-.57.09-.15-.93,0-1.9.16-2.89Z"/>
          <path class="cls-1" d="M104.81,69.62s-.01,0,0,0c0,0,.01,0,.02,0,0,0,.01,0,.02,0-.02,0-.03-.02-.04-.01Z"/>
          <path class="cls-1" d="M131.44,58.5s-.01.04,0,.06c0,.01,0,.01,0,0,0-.01,0-.02,0-.03,0,0,0-.02,0-.02Z"/>
          <path class="cls-2" d="M119.61,74.06s0-.02.02-.01v.02s-.02,0-.02,0Z"/>
        </g>
        <g>
          <path class="cls-1" d="M169.7,37.79c-2.59-6.21-10.05,22.3-11.17,23.38,13.57-1.74,13.61-17.74,11.17-23.38Z"/>
          <path class="cls-1" d="M158.53,61.16s-.06.01-.1.02c.02.03.06.02.1-.02Z"/>
          <path class="cls-1" d="M156.54,36.57c.44-4.63,2.67-11.03-.41-17.56l-.09-.15c-19.85-27.22-7.89,3.53-.96,17.96.34.7,1.38.52,1.45-.25Z"/>
          <path class="cls-1" d="M139.43,19.04c-8.89-6.65-18.43-9.64-9.58,1.41,14.75,10.71,21.7,17.22,24.78,18.32,2.35.98-5.86-13.1-15.2-19.73Z"/>
          <path class="cls-1" d="M155.41,59.09c4.15-3.66-18.48-29.33-16.31-19.14.35,1.63,1.12,3.14,2.15,4.44,6.37,8.06,9.48,13.04,11.43,14,1.58.92,3.61.83,2.73.71Z"/>
          <path class="cls-1" d="M143.63,66.8c1.73,3.84,3.5,5.83,5.56,8.54,2.68-3.9-9.57-21.54-5.56-8.54Z"/>
          <path class="cls-1" d="M138.1,73.69c-2.53,7.27,2.15,11.5,2.01,14.21,3.16-2.06,4.72-17.79-2.01-14.21Z"/>
          <path class="cls-1" d="M155.72,73.59c-1.34,1.36-.31.59-2.72,3.36,13.01,3.05,18.98-3.93,19.42-7.61.33-3.98-4.86-4.66-16.7,4.25Z"/>
        </g>
        <g>
          <path class="cls-1" d="M170.92,82.28c-.64.37-1.14.72-1.54,1.03,2.8-3.51,5.3-9.95,2.18-13.09-.4-.4-1.05-.32-1.41.11-2.75,3.37-3.48,8.63-2.98,13.13.08.69.81,1,1.37.71-2.29,3.41,12.66,2.2,12.23-2.25-1.49-3.15-7.24-.74-9.85.36Z"/>
          <path class="cls-1" d="M177.9,73.59c1.97-2.99,3.01-8.48.52-11.49-.28-.34-.82-.42-1.13-.1-2.12,2.09-1.49,7.89-.69,11.37.14.62.95.76,1.3.23Z"/>
          <path class="cls-1" d="M180.06,71.87c-.2.14-.42.32-.58.5-5.09,5.73,6.07,4.56,6.75-.16-.15-3.41-5.19-1.04-6.17-.34Z"/>
          <path class="cls-1" d="M187.9,47.1c.36-1.81.31-3.69-.25-5.44-1.61-5.04-3.84-.8-2.43,5.59,1.45,6.25,1.89,3.88,2.68-.15Z"/>
          <path class="cls-1" d="M191.83,45.46c-2.32,1.06-3.83,3.83-4.62,7.58,3.37,2.22,8.27-7.3,4.62-7.58Z"/>
          <path class="cls-1" d="M183.41,64.71c-3.78,5.58,5.03,3.82,4.81-.55-.64-3.32-3.48-.8-4.81.55Z"/>
          <path class="cls-1" d="M181.49,57.78c-.57-.53-1.51-.22-1.75.52-.53,1.64-.06,4.12.41,5.71,1.88,7.13,3.8-3.95,1.34-6.23Z"/>
          <path class="cls-1" d="M184.49,59.78c1.03-2.17,1.18-8.1-.22-10.44-.53-.9-1.89-.65-2.09.37-.55,2.84.45,7.8,1.54,10.07.15.32.62.32.77,0Z"/>
          <path class="cls-1" d="M159.66,92.22c-11.54,3.72,9.9,7.5,10.56,1.92-.85-3.69-7.52-2.47-10.56-1.92Z"/>
          <path class="cls-1" d="M156.86,92.23c3.97-2.81,8.86-9.65,6.11-13.98-.33-.52-1.05-.59-1.53-.21-3.71,2.95-5.71,8.36-6.23,13.27-.09.89.92,1.44,1.64.92Z"/>
          <path class="cls-1" d="M147.96,100.59c-1.08.39-1.87.76-2.4,1.13,2.56-4.16,4.38-11.27.69-14.25-.48-.38-1.18-.22-1.51.29-2.57,3.98-2.73,9.75-1.65,14.56.16.73.99.98,1.56.61-.06,2.65,13.54,3.68,13.93-.75-.96-3.66-7.59-2.23-10.61-1.58Z"/>
        </g>
        <g>
          <path class="cls-1" d="M145.82,106.39c-2.26,1.79-3.48,5.09-3.79,8.08-.06.54.56.88,1,.56,2.42-1.71,5.4-5.88,3.72-8.51-.2-.31-.64-.36-.93-.13Z"/>
          <path class="cls-1" d="M201.19,89.15c-8.06,1.87-17,7.26-18.83,8.11.64-.97,2.41-2.88,6.52-7.96,1.45-3.17,4.13-7.53,2.68-9.32-6.92,2.65-9.64,16.4-9.77,17.28l.26.8c0-.19.06-.39.22-.66,1.17.29,7.99,2.08,14.02-.6,6.32-2.66,11.97-7.46,4.9-7.66Z"/>
          <path class="cls-1" d="M207.16,59.57c-1.95,5.58,1.65,8.84,1.54,10.92,2.43-1.59,3.62-13.67-1.54-10.92Z"/>
          <path class="cls-1" d="M209.32,70.53c1.99-.63,6.04,2.05,10.96-1.24,1.37-5.69-10.03-1.51-10.96,1.24Z"/>
          <path class="cls-1" d="M171.01,102.71c-7.03,2.26,6.03,4.57,6.43,1.17-.52-2.25-4.58-1.5-6.43-1.17Z"/>
          <path class="cls-1" d="M169.3,102.72c2.42-1.71,5.4-5.88,3.72-8.51-.2-.31-.64-.36-.93-.13-2.26,1.79-3.48,5.09-3.79,8.08-.06.54.56.88,1,.56Z"/>
          <path class="cls-1" d="M205.04,79.19c-11.42,4.07,10.13,7.18,10.61,1.58-.96-3.66-7.59-2.23-10.61-1.58Z"/>
          <path class="cls-1" d="M200.16,82.43c2.86-3.93,5.3-11.98,1.31-15.2-.48-.38-1.18-.22-1.51.29-2.57,3.98-2.73,9.75-1.65,14.56.19.87,1.33,1.07,1.85.35Z"/>
        </g>
        <path class="cls-1" d="M189.25,42.35c.79,12.72-5.43,24.75-13.02,34.53-7.73,9.9-17.77,17.82-27.99,24.75-9.79,7.02-18.49,15.86-23.55,26.87-4.88,10.56-6.1,22.99-2.29,34.03,0,0-5.58,2.19-5.58,2.19-6.05-18.95,1.2-40.03,14.95-53.75,6.52-6.9,14.58-11.9,22.37-17.11,14.8-10.38,28.8-24.31,33.24-42.37.68-2.96,1.11-6.05.91-9.02l.97-.13h0Z"/>
        <path class="cls-1" d="M213.61,61.19c-5.26,17.53-19.63,30.89-35.43,39.27-4.55,2.51-11.55,5.26-16.44,7.22-10.57,4.58-20.58,11.22-27.39,20.54-6.61,8.98-10,20.47-8.42,31.54,0,0-5.9,1.09-5.9,1.09-2.3-19.06,8.52-37.72,24.26-47.87,5.08-3.44,10.57-6.14,16.2-8.34,4.88-1.74,11.91-4.24,16.47-6.57,13.16-6.39,25.03-16.17,32.21-29.06,1.41-2.57,2.68-5.28,3.49-8.05l.95.23h0Z"/>
        <path class="cls-1" d="M223.02,82.29c-8.84,14.66-23.54,24.66-38.52,32.28-5.02,2.51-10.35,4.64-15.54,6.68-17.06,6.97-35.56,17.69-40.48,36.49-.53,2.36-.84,4.79-.57,7.18l-5.93.89c-.5-6.22,1.55-12.45,4.51-17.81,8.8-15.34,25.45-24.07,41.36-29.72,10.55-3.58,20.77-7.96,30.2-13.92,7.03-4.44,13.64-9.65,19.17-15.88,1.82-2.08,3.57-4.28,4.95-6.62l.87.45h0Z"/>
        <g>
          <path class="cls-1" d="M178.35,163.2c.12-.04.28-.06.43-.12-.14.04-.29.08-.43.12Z"/>
          <g>
            <path class="cls-1" d="M243.63,156.99s0,.01-.01,0c-.01,0-.01-.01-.01-.04h.01s0,.03.01.04Z"/>
            <path class="cls-1" d="M235.66,173.64c-1.16.23-2.42.06-3.66-.18-1.96-.41-3.86-1.24-5.52-2.48-2.39-1.88-4.91-4.27-5.82-7.73-.68-3.03.82-4.33,3.23-3.18,2.84,1.38,5.04,3.83,7,6.06,1.81,2.22,3.66,4.4,4.63,6.8.08.28.13.51.13.72Z"/>
            <path class="cls-1" d="M243.46,156.81c-.86.55-2.02.92-3.2,1.27-1.87.54-3.94.92-6.01,1.01-3.05.04-6.43.17-9.15-1.51-2.29-1.53-1.98-3.66.56-4.49,3-.92,6.26-.31,9.24.36,2.84.74,5.73,1.61,8,2.93.23.17.42.29.55.43Z"/>
            <path class="cls-1" d="M240.01,140.37s.03.01,0,.01-.03-.01-.03-.03t.03.01Z"/>
            <path class="cls-1" d="M196.17,179.03h-.03s-.03-.01-.03-.01t0-.01s.03.01.05.03Z"/>
            <path class="cls-1" d="M218.97,175.31c-.4,3.54-.93,7.27-2.42,10.69-.19.37-.36.65-.52.88-.86-.78-1.43-2.07-1.96-3.44-.81-2.16-1.32-4.74-1.44-7.39-.13-3.91-.18-8.31,1.38-11.87,1.41-3,3.22-2.7,4.22.18,1.12,3.41,1.04,7.25.74,10.95Z"/>
            <path class="cls-1" d="M211.71,162.79c-1.34,3.72-3.85,6.83-6.39,9.64-2.48,2.58-5.23,5.25-8.1,6.47-.33.09-.59.14-.82.14.11-1.7.65-3.51,1.24-5.27.93-2.75,2.2-5.41,3.68-7.63,2.25-3.23,4.7-6.53,7.77-7.58,2.66-.79,3.73,1.06,2.62,4.23Z"/>
            <path class="cls-1" d="M239.74,140.25c-.38.84-1.18,1.61-1.98,2.4-1.28,1.23-2.8,2.45-4.46,3.57-2.52,1.55-5.13,3.62-8.23,4.19-2.66.45-3.71-1.35-2.35-3.9,1.65-2.94,4.51-4.6,7.39-5.62,2.8-.92,5.88-1.39,8.83-.88.33.08.59.15.81.24Z"/>
            <path class="cls-1" d="M235.66,173.92s.01.01,0,0c0,0,0-.02,0-.03,0,0,0-.01,0-.02,0,.03-.03.03-.01.05Z"/>
            <path class="cls-1" d="M244.95,148.5c13.85-7.13,10.65-15.25-10.29-17.88,4.97-14.86-11.78-30.9-22.46-12.63-13.36-23.86-27.42-18.14-19.52,13.01-18.84-3.21-20.58,26.78-3.16,35.12-12.17,26.79-2.59,43.63,14.7,23.16,3.87,26.14,22.39,13.64,23.67-5.97,19.8,2.56,27.47-9.46,15.11-17.8,18.1-6.42,18.07-10.3,1.94-17.01ZM231.89,137.09c3.04-1.05,7.03-1.55,10.4.32,1.65.91,2.53,2.49,2.16,3.78-1.07,3.4-6.24,5.18-9.8,7.06-1.98.93-4.08,1.71-6.24,2.25-1.61.37-3.3.78-4.97.43-3.72-1.01-1.2-6.08.37-7.92,2.15-2.75,4.92-4.75,8.08-5.92ZM215.93,127.24c1.1-3.66,2.85-7.72,6.66-8.13,1.85-.18,4.03,1.21,5.02,3.05,2.59,4.93-.01,9.83-1.37,13.97-.83,2.16-1.89,4.26-3.16,6.25-.96,1.47-1.93,3.04-3.36,4.06-3.26,2.24-4.59-3.77-4.79-6.81-.37-4.19-.04-8.53,1-12.4ZM197.77,119.31c.59-2.39,2.45-3.57,4.31-2.81,5.04,2.2,7.72,9.93,9.71,14.88,1.04,2.77,1.79,5.59,2.25,8.37.33,2.1.66,4.23.33,6.3-.88,4.59-5.29,1.46-7.21-.68-2.72-2.85-5.1-6.62-6.99-11.06-1.71-4.28-3.59-10.06-2.4-15.01ZM186.66,151.12c-.88-2.57-.61-6.08.63-8.03,3.44-5.16,9.14-2.26,13.16-.72,2.2.98,4.29,2.36,6.22,4,1.43,1.25,2.9,2.52,3.89,4.36,2.06,4.12-2.71,6.19-5.05,6.94-3.28,1.04-6.71,1.37-10.06.78-3.18-.75-6.97-2.1-8.79-7.34ZM204.55,178.55c-2.56,3.3-5.85,7.49-9.52,7.36-1.78-.09-3.17-2.3-3.25-5.11-.15-7.72,4.63-13.69,7.94-17.42,1.87-2.01,3.9-3.5,6.02-4.51,1.6-.72,3.26-1.38,4.95-1.11,3.71.78,1.57,6.56.36,9.39-1.71,3.92-3.9,7.78-6.49,11.4ZM218.83,190.76c-1.42,1.79-3.73,2.62-5.32,1.73-4.24-2.56-3.81-10.74-3.46-16.18.26-3.02.87-5.98,1.8-8.69.72-2.01,1.51-4.04,2.82-5.43,3.05-2.86,4.83,2.76,5.52,5.3.96,3.68,1.53,7.46,1.65,11.35-.03,3.76-.13,8.24-3.02,11.92ZM237.22,177.43c-5.09,2.11-9.66-1.2-12.54-4.28-1.56-1.67-2.79-3.76-3.63-6.07-.63-1.74-1.19-3.63-1.02-5.61.56-4.38,5.16-1.93,7.21-.79,2.9,1.67,5.6,3.62,8.07,5.62,2.26,2.05,5.04,4.13,5.1,7.18,0,1.5-1.33,3.18-3.18,3.95ZM247.11,158.74c-3.04,2.77-8.87,2.94-13.01,2.68-2.25-.15-4.44-.66-6.45-1.6-1.51-.7-3.04-1.53-4.08-3-2.19-3.5,2.7-5.18,5.04-5.43,3.31-.51,6.75-.35,10.07.23,3.17.63,6.86,1.53,8.76,3.66.91,1.05.79,2.45-.32,3.46Z"/>
            <path class="cls-2" d="M210.56,150.74c-.98-1.84-2.45-3.11-3.89-4.36-1.93-1.64-4.03-3.02-6.22-4-4.03-1.55-9.73-4.45-13.16.72-1.24,1.94-1.51,5.46-.63,8.03,1.83,5.24,5.61,6.58,8.79,7.34,3.35.59,6.77.26,10.06-.78,2.34-.75,7.11-2.82,5.05-6.94ZM190.57,147.93s0-.04-.01-.05h0s.01-.01.01-.01c.01.03.01.04.01.09,0-.01-.01-.03-.01-.03ZM208.4,155.25c-2.98,1.29-6.25.81-9.24-.24-2.84-1.12-5.73-2.72-7.92-5.74-.23-.37-.4-.68-.52-.98.88-1,2.07-1.48,3.28-1.88,1.89-.6,3.99-.72,6.05-.38,3.04.59,6.39,1.23,9,3.66,2.21,2.15,1.89,4.41-.64,5.57Z"/>
            <path class="cls-2" d="M210.69,157.76c-1.69-.27-3.35.4-4.95,1.11-2.12,1.01-4.15,2.51-6.02,4.51-3.31,3.73-8.09,9.7-7.94,17.42.08,2.81,1.47,5.02,3.25,5.11,3.67.13,6.97-4.06,9.52-7.36,2.59-3.62,4.78-7.48,6.49-11.4,1.21-2.84,3.35-8.61-.36-9.39ZM196.14,179.03s-.03-.01-.03-.01t0-.01s.03.01.05.03h-.03ZM205.32,172.43c-2.48,2.58-5.23,5.25-8.1,6.47-.33.09-.59.14-.82.14.11-1.7.65-3.51,1.24-5.27.93-2.75,2.2-5.41,3.68-7.63,2.25-3.23,4.7-6.53,7.77-7.58,2.66-.79,3.73,1.06,2.62,4.23-1.34,3.72-3.85,6.83-6.39,9.64Z"/>
            <path class="cls-2" d="M220.2,167.48c-.69-2.54-2.47-8.17-5.52-5.3-1.32,1.39-2.11,3.43-2.82,5.43-.93,2.71-1.55,5.67-1.8,8.69-.35,5.44-.78,13.62,3.46,16.18,1.58.89,3.9.06,5.32-1.73,2.89-3.68,2.99-8.17,3.02-11.92-.12-3.89-.69-7.67-1.65-11.35ZM218.97,175.31c-.4,3.54-.93,7.27-2.42,10.69-.19.37-.36.65-.52.88-.86-.78-1.43-2.07-1.96-3.44-.81-2.16-1.32-4.74-1.44-7.39-.13-3.91-.18-8.31,1.38-11.87,1.41-3,3.22-2.7,4.22.18,1.12,3.41,1.04,7.25.74,10.95Z"/>
            <path class="cls-2" d="M235.3,166.3c-2.47-2.01-5.16-3.95-8.07-5.62-2.05-1.14-6.65-3.59-7.21.79-.17,1.98.4,3.87,1.02,5.61.84,2.31,2.07,4.4,3.63,6.07,2.88,3.08,7.45,6.39,12.54,4.28,1.85-.77,3.18-2.45,3.18-3.95-.06-3.05-2.84-5.14-5.1-7.18ZM232.01,173.47c-1.96-.41-3.86-1.24-5.52-2.48-2.39-1.88-4.91-4.27-5.82-7.73-.68-3.03.82-4.33,3.23-3.18,2.84,1.38,5.04,3.83,7,6.06,1.81,2.22,3.66,4.4,4.63,6.8.08.28.13.51.13.72-1.16.23-2.42.06-3.66-.18Z"/>
            <path class="cls-2" d="M247.43,155.28c-1.89-2.12-5.59-3.03-8.76-3.66-3.32-.58-6.76-.74-10.07-.23-2.34.26-7.22,1.93-5.04,5.43,1.04,1.47,2.57,2.3,4.08,3,2.02.93,4.2,1.44,6.45,1.6,4.14.26,9.97.09,13.01-2.68,1.11-1.01,1.23-2.42.32-3.46ZM240.26,158.08c-1.87.54-3.94.92-6.01,1.01-3.05.04-6.43.17-9.15-1.51-2.29-1.53-1.98-3.66.56-4.49,3-.92,6.26-.31,9.24.36,2.84.74,5.73,1.61,8,2.93.23.17.42.29.55.43-.86.55-2.02.92-3.2,1.27ZM243.61,156.99s-.01-.01-.01-.04h.01s0,.03.01.04t-.01,0Z"/>
            <path class="cls-2" d="M242.3,137.41c-3.37-1.87-7.36-1.37-10.4-.32-3.16,1.16-5.93,3.17-8.08,5.92-1.57,1.84-4.09,6.91-.37,7.92,1.67.34,3.36-.06,4.97-.43,2.16-.54,4.26-1.32,6.24-2.25,3.57-1.88,8.73-3.66,9.8-7.06.37-1.29-.51-2.88-2.16-3.78ZM237.76,142.65c-1.28,1.23-2.8,2.45-4.46,3.57-2.52,1.55-5.13,3.62-8.23,4.19-2.66.45-3.71-1.35-2.35-3.9,1.65-2.94,4.51-4.6,7.39-5.62,2.8-.92,5.88-1.39,8.83-.88.33.08.59.15.81.24-.38.84-1.18,1.61-1.98,2.4ZM240.01,140.39s-.03-.01-.03-.03t.03.01s.03.01,0,.01Z"/>
            <path class="cls-2" d="M227.61,122.16c-1-1.84-3.17-3.23-5.02-3.05-3.81.41-5.56,4.47-6.66,8.13-1.04,3.87-1.37,8.21-1,12.4.2,3.04,1.53,9.05,4.79,6.81,1.43-1.02,2.4-2.59,3.36-4.06,1.27-1.99,2.33-4.09,3.16-6.25,1.35-4.14,3.96-9.04,1.37-13.97ZM223.83,124.28h.03s.03,0,.01.01c-.03.01-.04,0-.06-.01h.03ZM223.75,135.08c-.7,3.26-1.29,6.88-3.17,9.69-1.67,2.39-3.48,1.94-4.14-1.28-.73-3.78.05-7.75,1.2-11.08,1.19-3.14,2.77-6.14,5.18-7.76.28-.15.52-.26.74-.32.49,1.24.59,2.63.68,4.04.1,2.21-.06,4.49-.49,6.71Z"/>
            <path class="cls-2" d="M214.04,139.75c-.46-2.79-1.21-5.6-2.25-8.37-1.99-4.95-4.68-12.68-9.71-14.88-1.85-.75-3.72.42-4.31,2.81-1.19,4.95.69,10.72,2.4,15.01,1.89,4.44,4.27,8.21,6.99,11.06,1.92,2.13,6.33,5.27,7.21.68.33-2.07,0-4.21-.33-6.3ZM210.39,146.83c-2.71-2.17-4.59-6.06-6.06-10.07-1.32-3.89-2.47-8.28-2.51-12.47.03-.47.05-.83.11-1.14,1.11.64,2.17,1.84,3.22,3.07,1.62,1.94,3.16,4.22,4.42,6.59,1.8,3.59,3.81,7.22,4.31,11.16.37,3.37-1.15,4.63-3.5,2.86Z"/>
            <path class="cls-1" d="M210.39,146.83c-2.71-2.17-4.59-6.06-6.06-10.07-1.32-3.89-2.47-8.28-2.51-12.47.03-.47.05-.83.11-1.14,1.11.64,2.17,1.84,3.22,3.07,1.62,1.94,3.16,4.22,4.42,6.59,1.8,3.59,3.81,7.22,4.31,11.16.37,3.37-1.15,4.63-3.5,2.86Z"/>
            <path class="cls-1" d="M208.4,155.25c-2.98,1.29-6.25.81-9.24-.24-2.84-1.12-5.73-2.72-7.92-5.74-.23-.37-.4-.68-.52-.98.88-1,2.07-1.48,3.28-1.88,1.89-.6,3.99-.72,6.05-.38,3.04.59,6.39,1.23,9,3.66,2.21,2.15,1.89,4.41-.64,5.57Z"/>
            <path class="cls-1" d="M223.75,135.08c-.7,3.26-1.29,6.88-3.17,9.69-1.67,2.39-3.48,1.94-4.14-1.28-.73-3.78.05-7.75,1.2-11.08,1.19-3.14,2.77-6.14,5.18-7.76.28-.15.52-.26.74-.32.49,1.24.59,2.63.68,4.04.1,2.21-.06,4.49-.49,6.71Z"/>
            <path class="cls-1" d="M223.87,124.3s-.04,0-.06-.01h.05s.03,0,.01.01Z"/>
            <path class="cls-1" d="M190.58,147.95s-.01-.03-.01-.03c0-.03,0-.04-.01-.05h0s.01-.01.01-.01c.01.03.01.04.01.09Z"/>
            <path class="cls-1" d="M202.05,122.78s0-.03,0,0c0,.01,0,.03-.02.04,0,0,0,.02,0,.03.02-.03.03-.03.03-.06Z"/>
          </g>
        </g>
        <circle class="cls-2" cx="191.27" cy="213.98" r="4.62"/>
        <circle class="cls-2" cx="196.91" cy="257.69" r="6.24"/>
        <path class="cls-2" d="M205.75,237.81c10.35-1.41,18.13-9.04.82-8.43-1.06.04-2.1.17-3.12.39,5.73-8.89,4.95-20.09-5.78-6.29-2.43,3.13-3.81,7-3.54,10.95.02.27.05.52.08.76.04.49.2,1.12.46,1.82,1.4,3.71,4.26,6.66,7.77,8.49,15.11,7.87,11.74-1.91,3.31-7.68Z"/>
        <circle class="cls-2" cx="60.24" cy="194.99" r="4.62"/>
        <path class="cls-2" d="M51.27,236.89c-.18,2.1-1.38,3.89-3.09,4.87-.46-3.76-.83-7.53-1.03-11.26,2.61.92,4.36,3.5,4.12,6.39Z"/>
        <path class="cls-2" d="M52.92,214.3c-.07.26-.16.5-.24.72-.15.47-.44,1.05-.86,1.67-1.24,1.88-2.88,3.41-4.78,4.57v-.04c.27-7.08,1.42-13.89,4.03-20.08.27.53.55,1.09.83,1.7,1.68,3.59,2.16,7.67,1.02,11.46Z"/>
        <g>
          <path class="cls-1" d="M69.66,93.21c.07.25-.08.25-.27.22-3.52-.97-10.6-1.21-15.09-.5-4.05.66-8.6,1.84-10.2,5.66-.33.87-.21,1.9.45,2.53,7.72,5.46,25.89-2.61,33.25.12.67.24,1.36.38,1.9-.26,3.71-6.59-1.28-14.72-6.73-18.28-4.71-3.1-8.81-2.41-6.51,3.94.73,2.28,2.18,4.57,3.19,6.5l.02.07Z"/>
          <path class="cls-2" d="M52.49,99.05c-1.35,0-2.51-.11-3.47-.33,4.18-2.65,13.85-2.56,18.74-1.58-4.87.66-10.67,1.91-15.26,1.91ZM76.91,96.89c-1.5-.26-3.35-.29-5-.18,4.19-3-.38-7.58-1.52-10.9,3.43,2.09,7.05,6.85,6.52,11.08Z"/>
        </g>
        <path class="cls-1" d="M87.27,123.61c-2.9-.72-5.71-.82-9.12,1.13-3.4,2.16-9.23,6.38-9.22,10.47.21,1.82,2.27,2.38,3.9,2.33,4.78-.29,9.82-2.5,13.2-7.09,1.29-1.75,2.21-6.55,1.25-6.83Z"/>
        <path class="cls-2" d="M73.89,133.38c.99-1.24,2.88-3.02,6.32-5.21,1.25-.7,2.4-1.03,3.59-1.03.22,0,.46.01.7.03-.29.27-.58.53-.78.71l-.23.21c-3.43,2.74-6.44,4.7-9.6,5.29Z"/>
        <path class="cls-1" d="M152.38,167.08c.17.38.35.74.53,1.08,6.62,11.29,12.16,8.11,13.63,5.32,1.43-3.36-12.98-8.14-14.16-6.4Z"/>
      </g>
    </g>
  </g>
</svg>