<?xml version="1.0" encoding="UTF-8"?>
<svg id="Calque_1" data-name="Calque 1" xmlns="http://www.w3.org/2000/svg" viewBox="0 0 321.98 376.93">
  <defs>
    <style>
      .cls-1 {
        fill: #fff;
      }

      .cls-2 {
        fill: #1a1a1e;
      }
    </style>
  </defs>
  <path class="cls-1" d="M274.47,118.95l-3.91-2.79c14.67-35.23,11.17-61.01,5.11-77-7.67-20.25-21.06-30-22.56-31.05l-11.64-8.11-52,59.54-4.44-3.1h-48.09l-3.86,2.7L81.41,0l-11.65,8.11c-1.5,1.04-14.83,10.75-22.5,30.91-6.05,15.91-9.61,41.58,4.85,76.64l-4.59,3.29L0,210.73l160.99,166.2,160.99-166.2-47.51-91.78Z"/>
  <path class="cls-2" d="M160.93,289.39v.76l.63-.38-.63-.38ZM161.56,289.77l.63-.38M217.53,148.22c-1.89,10.92-9.65,19.6-19.96,22.3l-8.93,2.34,2.97-15.62,16.02-9.22,9.9.2ZM134.24,172.86l-8.93-2.34c-10.31-2.7-18.07-11.38-19.96-22.3l9.9-.2,16.02,9.22,2.97,15.62ZM262.16,130.45l-11.48-8.19c35.97-70.67-6.62-100.32-6.62-100.32l-51.9,59.41-.23.06-11.9-8.31h-38.12l-11.43,7.99-51.69-59.16s-42.38,29.52-6.86,99.84l-12.13,8.67-40.51,78.27,141.68,146.27,141.68-146.27-40.51-78.27ZM235.45,58.96l14.48,62.77-5.04-3.61-17.96-46.53-32.02,8.99,40.54-21.62ZM87.43,58.96l41.56,22.16-33.94-9.53-17.97,46.53-3.96,2.83,14.31-61.99ZM221.69,219.29l-33.68,68.87-27.02,19.11-27.02-19.11-33.69-68.87-20.73,2.97-26.66-16.78,15.8-27.63,20.34-4.97,5.51-10.82,1.44-18.75,9.72-5.43,17.96,4.44,16.77-4.65,9.69,16.99-6.39,10.37,17.25,14.32,17.24-14.32-6.39-10.37,9.69-16.99,4.99,1.38-11.01-23.77,25.93,26.26,14.82-3.67,9.72,5.43,1.44,18.75,5.52,10.82,20.33,4.97,15.8,27.63-26.65,16.78-20.73-2.97ZM161.56,289.77l-.63-.38M162.2,289.39l-.63.38M231.85,205.43l-26.17-26.51,11.6-4.96,14.57,31.47ZM218.55,201.81c-5.8.58-19.63,16.12-21.81,18.61.04-1.18.04-2.26-.04-3.24-.52-7.22-8.84-25.8-9.09-26.38,2.84,10.83-7.01,14.76-15.62,16.26,7.35-4.1,8.11-7.52,7.36-9.74-.54-1.58-2.76-2.81-5.61-3.16l-12.7-1.56-12.69,1.56c-2.85.35-5.08,1.58-5.61,3.16-.74,2.18-.02,5.54,7.07,9.57-8.19-1.61-17.04-5.62-14.3-16.1-.26.57-8.57,19.16-9.09,26.38-.06.9-.08,1.89-.04,2.97-2.81-3.19-15.94-17.78-21.56-18.34,0,0,25.88,37.89,30.93,63.14l-.69-3.44c3.55,12.34,6.83,22.1,6.83,22.1l19.68,14.32,19.69-14.32s3.76-11.17,7.58-24.71l-1.21,6.05c5.05-25.26,30.94-63.14,30.94-63.14ZM172.53,283.2l-10.33,6.2-.63.38-.63-.38-10.32-6.2c-4.78-4.3-1.38-13.24-1.38-13.24,4.09,4.09,5.4,9.75,5.4,9.75l6.93,2.07,6.94-2.07s1.3-5.66,5.4-9.75c0,0,3.4,8.93-1.38,13.24ZM180.84,235.38c.65-4.78-1.65-18.2-1.65-18.2,0,0-.92,3.63-3.64,6.36-2.7-3.6-3.38-5.42-13.98-5.46-10.6.04-11.29,1.86-13.99,5.46-2.73-2.73-3.63-6.36-3.63-6.36,0,0-2.31,13.42-1.65,18.2,0,0-16.55-20.02-5.2-27.3,9.58,3.63,10.16,3.94,15.04,4.55,4.62.56,8.34.82,9.44.89,1.11-.07,4.82-.33,9.43-.89,4.88-.61,5.47-.92,15.04-4.55,11.35,7.28-5.19,27.3-5.19,27.3Z"/>
</svg>