<?xml version="1.0" encoding="UTF-8"?>
<svg id="Calque_1" data-name="Calque 1" xmlns="http://www.w3.org/2000/svg" viewBox="0 0 541.95 542.13">
  <defs>
    <style>
      .cls-1 {
        fill: #fff;
      }
    </style>
  </defs>
  <path class="cls-1" d="M301.47,228.93c-.53-.16-1.09.12-1.28.65-1.33,3.67-5.93,17.37-2.97,23.25,3.43,6.82,11.74,9.57,18.56,6.14,6.82-3.43,9.57-11.74,6.14-18.56-2.96-5.88-16.7-10.35-20.44-11.48Z"/>
  <path class="cls-1" d="M541.54,160.25c1.1-2.61-.14-5.6-2.76-6.68-4.25-1.74-12.46-2.68-22.49-2.09-13.83.82-14.47.99-39.65,5.21-.43.09-.79.23-1.18.17h-.05c-.51-.02-.91-.33-1.07-.82-.01-.06-.02-.17-.04-.23-14.7-58.68-57.16-112.93-106.92-136.95-3.42-1.65-7.52,0-8.75,3.59-5.87,16.67-15.09,40.73-20.38,57.46-.01,0-.04.01-.05.01.01.01.02.02.04.02-1.71,5.2-4.04,11.26-7.01,16.49-2.86,5.04-3.62,11.01-1.58,16.43,9.22,24.49,23.52,54.29,36.65,95.24,7.93,24.79-2.67,41.7-4.56,61.25-1.61,17.35,23.71,70.55,26.25,88.87,0,.11.01.17.02.28,3.69,10.83,20.46,78.94,21.37,102.09.08,2.11-.46,4.22-1.48,6.08-21.41,38.99-38.45,53.35-50.46,58.98-6.67,3.13-6.22,12.7.65,15.21.12.02.23.04.35.07l34.52,1.17.96-.03c21.83-2.21,35.15-26.46,44.5-46.1.42-.89,1.42-4.78,2.89-10.35.49-1.86,1.83-3.42,3.61-4.14,6.85-2.77,9.24-7.37,9.76-8.55.08-.18.1-.38.07-.57l-1.71-10.73c-.44-2.76.99-5.57,3.59-6.59,10.68-4.18,12.55-12.85,12.86-15.25.05-.38-.12-.75-.42-.98-3.16-2.34-5.04-5.23-6.1-8.23-.56-1.61-.36-3.44.73-4.75s2.59-2.43,3.45-3.09c14.48-9.19,36.02-18.62,25.53-32.19-9.55-12.36-16.43-20.02-31.5-44.44-2.63-4.26.71-9.87,5.69-9.29,2.44.28,4.93.26,7.46-.1,1-.14,1.21-1.51.31-1.97-3.99-2.06-7.62-4-10.9-6.33-5.83-4.24-11.57-9.02-15.59-14.71-.75-1.07-1.02-2.39-.8-3.68,6.12-36.15,27.73-81.04,21.3-114.67-.17-.9.34-1.76,1.23-1.98,9.98-2.43,64.64-16.44,71.66-33.14Z"/>
  <path class="cls-1" d="M52.43,310.78c.07.17,1.16,4.24,1.15,5.34v.05c.02.46-.01.83-.11,1.16-.13.67-5.59,14.03-1.65,16.02.71.45,1.66.69,2.68.78,5.86.54,37.82-9.85,44.4-13.88.58-.36.87-1.01.8-1.69-8.74-86.53,33.53-176.68,137.06-209.6,4.52-1.44,8.12-4.94,9.8-9.37,20.94-55.48,58.19-70.38,71.73-74.06,2.22-.6,4.2,1.53,3.46,3.71-4.49,13.24-16.99,50.06-21.65,63.78-.85,2.49,1.09,5.05,3.72,4.9,1.45-.08,2.91-.15,4.39-.2,12.43-1.74,15.97-24.23,20-34.08,0,0,1.22-3.38,4.67-12.9,3-8.23,9.25-25.67,12.02-33.25.84-2.33.5-4.4-.52-6.35l-1.67-1.33c-4.01-1.21-8.32-2-12.43-2.94l-3.34-.38c-16.65.55-43.75,13.87-66.63,35.52h-.52l-.24-31.25c-.03-4.47-2.52-8.4-6.18-10.43l-1.69-.32c-6.3.63-12.61,1.52-18.89,2.66h-.05c-19.77,3.13-39.28,8.31-58.14,15.22h-.05c-7.35,2.67-14.58,5.52-21.78,8.7h-.05C32.23,77.27,29.49,226.93,52.43,310.78ZM258.61,33.43s.07.02.1.03c.02-.02.05-.04.07-.06h0s-.05.04-.07.06c-.04-.01-.07-.02-.11-.04,0,0,0,0,0,0Z"/>
  <path class="cls-1" d="M256.61,396.33s-.01-.01-.03-.01c-5.05-.37-10.1-.89-15.13-1.54-3.38-.44-5.09,3.96-2.26,5.87,7.48,5.05,15.33,9.48,23.09,12.89h.01c47.61,22.52,98.61,1.95,119.71-43.21,1.38-2.79-1.97-5.55-4.41-3.62-32.25,25.69-78.85,32.97-120.98,29.63Z"/>
  <path class="cls-1" d="M164.11,276.81c-20.49-7.9-42.68,10.43-46.58,34.5-6.5,51.15,55.88,69.73,100.42,79.35,2.84.61,4.61-2.98,2.4-4.86-22.2-18.89-54.9-46.89-48.72-96.22.69-5.47-2.38-10.78-7.52-12.77Z"/>
  <path class="cls-1" d="M326.04,527.58c-37.54-13.58-33.92-45.52-62.52-98.14-2.01-3.7-6.51-5.38-10.38-3.72-69.98,29.97-97.74,74.9-106.36,115.16-.14.65.35,1.26,1.02,1.26h181.98c.43,0,.79-.28.99-.65,3.41-5.05,1.01-11.82-4.72-13.9Z"/>
  <path class="cls-1" d="M203.93,425.96c6.84-6.17,4.47-18.06-4.52-20.07-53.81-12.01-79.9-36.93-90.67-50.7-4.33-5.53-12.02-8.76-18.34-5.68-15.9,7.75-49.83,11.7-74.86,9.44C6.8,358.16.02,366.84,0,375.61c-.02,26.04-.03,79.25.1,118.57.09,26.52,21.61,47.95,48.13,47.95h75.39c1.37-38.93,48.99-88.27,80.29-116.17Z"/>
</svg>