<?xml version="1.0" encoding="UTF-8"?>
<svg id="Calque_1" data-name="Calque 1" xmlns="http://www.w3.org/2000/svg" viewBox="0 0 169.42 228.76">
  <defs>
    <style>
      .cls-1 {
        fill: #1a1a1e;
      }
    </style>
  </defs>
  <path class="cls-1" d="M161.46,32.16c-30-8-57-19-86-28C67.46,2.16,60.46.16,52.46.16c-5-1-10,3-13,7-4,8-8,19,1,24,10,5,22,6,33,9,16,5,30,12,46,17,10,2,19,6,29,7,7,1,14-1,17-8,4-9,7-21-4-24Z"/>
  <path class="cls-1" d="M88.97,61.22c2.87,4.93,5.62,10.19,8.15,15.41,5.67,11.74,22.21,47.82,9,56.98-2.08,1.25-4.66,1.91-7.46,2.18-.61-2.15-1.33-4.3-2.17-6.42-6.37-17.03-15.01-37.87-29.36-49.79-16.36-13.22-33.41-4.51-42.46,12.23-15.85,31.49,25.04,50.32,49.36,57,2.57.55,5.14,1.04,7.72,1.44.28,9.21-3.28,16.59-9.7,22.09-4.78-7.89-11-14.94-17.48-21.46-4.45-4.46-9.34-8.88-14.64-12.43-11.31-8.03-26.55-10.4-34.92,3.19-7.35,12.62-6.13,30.37.57,42.94,5.73,10.85,16.98,17.18,28.98,18.05,10.76.67,22.98-1.61,33.76-6.13.71,3.83.65,7.78-.49,11.81-1.34,4.54-4.26,8.81-7.89,11.89l-.86,1.01c-1.26,1.48-1.48,3.67-.39,5.41,1.34,2.15,4.18,2.8,6.32,1.46.95-.57,1.51-1.04,2.32-1.63,10.62-8.01,15.39-22.35,12.49-35.13-.06-.26-.13-.51-.19-.77,1.1-.72,2.18-1.46,3.21-2.24,12.7-9.79,18.27-23.35,18.06-37.63.87-.13,1.74-.27,2.61-.44,12.95-2.52,21.01-12.4,21.22-25.5.39-22.7-15.54-50.11-27.84-68.51-3.52-4.84-10.78-.18-7.91,5ZM72.46,95.16c0,1,2,3-1,3,2-1-2-3,1-3ZM51.46,81.16l1,1c0,1,1,3-1,2v-3ZM41.46,82.16c1-1,3-2,4-3h2v2l-4,4c0-2-3,0-2-3ZM34.46,110.16c-3,1-1-2-1-3h1v3ZM35.46,88.16l-1-1c1-1,1-2,3-2v1c-1,1-1,2-2,2ZM41.32,124.16c-2,0-4,1-5-1,0-1,0-2,1-2,2,0,4-1,5,1,0,1,0,2-1,2ZM48.61,119.11c-6.73-5.21-12.5-11.09-8.09-18.84,1.66-3.01,5.16-7.11,8.06-8.35,4.2-1.82,8.96,3.97,11.59,7.12,7.64,10.04,12.91,21.88,17.38,34.05-10.03-3.29-20.55-7.84-28.94-13.98ZM5.46,162.16s-1-1-1-2l1-1,1,1c0,1,1,3-1,2ZM7.46,173.16l-1-1c0-2,2-3,3-4,1,0,2,0,2,2-1,1-2,3-4,3ZM15.32,151.16h-5v-2c1-2,3-1,5-1,1,0,1,2,1,3h-1ZM58.13,180.04c-11.54,3.88-29.45,8.45-36.81-4.27-3.06-5.26-4.36-13.39-3.43-19.89.49-2.83,1.14-5.14,2.65-6.84.77-.82,2.06-.64,3.22-.45,3.62.77,7.55,3.17,10.84,5.45,5.62,3.94,10.82,8.74,15.73,13.58,3.37,3.51,6.88,7.42,9.92,11.63-.69.27-1.39.54-2.11.79Z"/>
</svg>