<?xml version="1.0" encoding="UTF-8"?>
<svg id="Calque_1" data-name="Calque 1" xmlns="http://www.w3.org/2000/svg" viewBox="0 0 155.93 88.8">
  <defs>
    <style>
      .cls-1 {
        fill: #fff;
      }
    </style>
  </defs>
  <path class="cls-1" d="M41.79,6.94l.26-.44c-5.62.43-35.25,8.01-40.74,1.53C-4.18,1.55,6.98,31.08,45.86,35.84l-5.1-23.79c-.24-1.77.12-3.57,1.03-5.11Z"/>
  <path class="cls-1" d="M154.61,8.03c-5.49,6.48-35.12-1.1-40.74-1.53l.26.44c.91,1.54,1.27,3.34,1.03,5.11l-5.1,23.79c38.88-4.75,50.04-34.29,44.55-27.81Z"/>
  <path class="cls-1" d="M59.64,51.1c-1.1-5.26-3.96-9.52-8.19-12.16l7.15,32.28c1.62-6.62,2.41-13.42,1.04-20.12Z"/>
  <path class="cls-1" d="M106.06,5.79l-13.09-3.68c-10-2.81-20.58-2.81-30.57,0l-13.05,3.67c-2.77.78-4.45,3.58-3.82,6.39l3.41,15.4c4.03,1.68,7.75,4.38,10.47,7.66,7.12,8.43,6.82,20.13,3.71,30.09-1.05,3.45-2.37,6.77-3.86,9.98,0,0,0,0,0,.01-.4.96-.79,1.88-1.17,2.77-.92,2.12-.14,4.61,1.83,5.8,10.87,6.53,24.48,6.57,35.37.1,2.06-1.22,2.88-3.78,1.89-5.95-.27-.58-.53-1.18-.81-1.79l.04-.17c-1.6-3.39-3.02-6.89-4.13-10.54-2.22-7.36-3.15-15.39-.46-22.82,2.41-6.83,8.11-12.25,14.8-15l3.29-15.58c.59-2.79-1.09-5.57-3.84-6.34ZM70.41,80.61c-2,.47-4-.78-4.47-2.78-.47-2,2.36-6.28,2.36-6.28,0,0,4.42,2.59,4.89,4.59s-.78,4-2.78,4.47ZM89.35,77.83c-.47,2-2.46,3.24-4.47,2.78s-3.24-2.46-2.78-4.47,4.89-4.59,4.89-4.59c0,0,2.82,4.28,2.36,6.28ZM95.83,12.24c-11.29,5.05-24.17,5.23-35.6.5l-7.84-3.24,9.51-2.67c10-2.81,20.58-2.81,30.57,0l9.51,2.67-6.15,2.75Z"/>
  <path class="cls-1" d="M97.1,72.71l7.13-33.76c-4.45,2.64-7.4,7.13-8.49,12.35-1.46,7.14-.47,14.38,1.36,21.4Z"/>
</svg>