<?xml version="1.0" encoding="UTF-8"?>
<svg id="Calque_1" data-name="Calque 1" xmlns="http://www.w3.org/2000/svg" viewBox="0 0 589.42 228.76">
  <defs>
    <style>
      .cls-1 {
        fill: #1a1a1e;
      }
    </style>
  </defs>
  <g>
    <path class="cls-1" d="M161.46,32.16c-30-8-57-19-86-28C67.46,2.16,60.46.16,52.46.16c-5-1-10,3-13,7-4,8-8,19,1,24,10,5,22,6,33,9,16,5,30,12,46,17,10,2,19,6,29,7,7,1,14-1,17-8,4-9,7-21-4-24Z"/>
    <path class="cls-1" d="M88.97,61.22c2.87,4.93,5.62,10.19,8.15,15.41,5.67,11.74,22.21,47.82,9,56.98-2.08,1.25-4.66,1.91-7.46,2.18-.61-2.15-1.33-4.3-2.17-6.42-6.37-17.03-15.01-37.87-29.36-49.79-16.36-13.22-33.41-4.51-42.46,12.23-15.85,31.49,25.04,50.32,49.36,57,2.57.55,5.14,1.04,7.72,1.44.28,9.21-3.28,16.59-9.7,22.09-4.78-7.89-11-14.94-17.48-21.46-4.45-4.46-9.34-8.88-14.64-12.43-11.31-8.03-26.55-10.4-34.92,3.19-7.35,12.62-6.13,30.37.57,42.94,5.73,10.85,16.98,17.18,28.98,18.05,10.76.67,22.98-1.61,33.76-6.13.71,3.83.65,7.78-.49,11.81-1.34,4.54-4.26,8.81-7.89,11.89l-.86,1.01c-1.26,1.48-1.48,3.67-.39,5.41,1.34,2.15,4.18,2.8,6.32,1.46.95-.57,1.51-1.04,2.32-1.63,10.62-8.01,15.39-22.35,12.49-35.13-.06-.26-.13-.51-.19-.77,1.1-.72,2.18-1.46,3.21-2.24,12.7-9.79,18.27-23.35,18.06-37.63.87-.13,1.74-.27,2.61-.44,12.95-2.52,21.01-12.4,21.22-25.5.39-22.7-15.54-50.11-27.84-68.51-3.52-4.84-10.78-.18-7.91,5ZM72.46,95.16c0,1,2,3-1,3,2-1-2-3,1-3ZM51.46,81.16l1,1c0,1,1,3-1,2v-3ZM41.46,82.16c1-1,3-2,4-3h2v2l-4,4c0-2-3,0-2-3ZM34.46,110.16c-3,1-1-2-1-3h1v3ZM35.46,88.16l-1-1c1-1,1-2,3-2v1c-1,1-1,2-2,2ZM41.32,124.16c-2,0-4,1-5-1,0-1,0-2,1-2,2,0,4-1,5,1,0,1,0,2-1,2ZM48.61,119.11c-6.73-5.21-12.5-11.09-8.09-18.84,1.66-3.01,5.16-7.11,8.06-8.35,4.2-1.82,8.96,3.97,11.59,7.12,7.64,10.04,12.91,21.88,17.38,34.05-10.03-3.29-20.55-7.84-28.94-13.98ZM5.46,162.16s-1-1-1-2l1-1,1,1c0,1,1,3-1,2ZM7.46,173.16l-1-1c0-2,2-3,3-4,1,0,2,0,2,2-1,1-2,3-4,3ZM15.32,151.16h-5v-2c1-2,3-1,5-1,1,0,1,2,1,3h-1ZM58.13,180.04c-11.54,3.88-29.45,8.45-36.81-4.27-3.06-5.26-4.36-13.39-3.43-19.89.49-2.83,1.14-5.14,2.65-6.84.77-.82,2.06-.64,3.22-.45,3.62.77,7.55,3.17,10.84,5.45,5.62,3.94,10.82,8.74,15.73,13.58,3.37,3.51,6.88,7.42,9.92,11.63-.69.27-1.39.54-2.11.79Z"/>
  </g>
  <g>
    <g>
      <path class="cls-1" d="M254.52,91.76c0,3.52-.19,6.02-.57,7.5-.18.73-.62,1.09-1.32,1.09-1.86,0-4.65-.11-8.36-.32-3.72-.21-6.51-.32-8.36-.32-1.76,0-4.38.04-7.87.11-3.49.08-6.12.11-7.87.11-.63,0-.94-.31-.94-.94,0-2.74.09-6.87.28-12.4.19-5.53.28-9.67.28-12.43,0-2.91-.13-7.28-.4-13.09-.26-5.81-.4-10.18-.4-13.09,0-.55.31-.83.94-.83.45,0,1.14.04,2.07.11.93.08,1.63.11,2.11.11.45,0,1.16-.04,2.11-.11.95-.08,1.66-.11,2.11-.11.6,0,.9.24.9.72,0,2.66-.1,6.67-.3,12.02-.2,5.35-.3,9.37-.3,12.06v5.95c-.03,2.66-.04,4.65-.04,5.95,0,5.58.23,8.36.68,8.36,9.27,0,16.26-.23,20.99-.68.23-.02.8-.11,1.73-.26.75-.15,1.33-.23,1.73-.23.53,0,.79.24.79.72Z"/>
      <path class="cls-1" d="M267.94,55.33c0,5.27-2.08,10.11-6.25,14.51-.35.38-.62.56-.79.56-.13,0-.3-.11-.53-.34l-2.6-2.52c0-.1.08-.25.23-.45,1.81-2.49,2.71-5.25,2.71-8.29,0-1.63-.35-3.1-1.05-4.41-.43-.83-1.06-1.66-1.88-2.49-.68-.68-1.02-1.09-1.02-1.24,0-.08.74-.79,2.22-2.15,1.58-1.41,2.49-2.29,2.73-2.66.24-.36.46-.55.66-.55.23,0,.54.18.94.53,3.09,2.74,4.63,5.9,4.63,9.49Z"/>
      <path class="cls-1" d="M311.41,65.84c0,.1-.04.33-.11.68-.98,5.75-1.47,10.71-1.47,14.88,0,.25.31,5.89.94,16.92l.04.53c.02.73-.31,1.09-1,1.09s-1.73.08-3.13.25c-1.39.16-2.43.24-3.11.24-.48,0-.84-.88-1.09-2.64-.25-1.76-.49-2.64-.72-2.64-.15,0-.83.49-2.03,1.47-1.48,1.21-2.86,2.12-4.14,2.75-1.98,1-3.97,1.51-5.95,1.51-4.87,0-8.98-1.95-12.32-5.84-3.16-3.72-4.75-8.05-4.75-13,0-5.58,1.59-10.18,4.78-13.83,3.34-3.79,7.74-5.69,13.19-5.69,3.84,0,7.2,1.33,10.06,3.99.43.5,1.09,1.23,2,2.19.08.08.15.11.23.11.15,0,.36-.79.64-2.37.28-1.58.63-2.37,1.06-2.37.68,0,1.95.19,3.81.57,2.06.45,3.09.85,3.09,1.21ZM301.81,81.59c0-3.09-.92-5.74-2.75-7.95-1.93-2.39-4.41-3.58-7.42-3.58s-5.53,1.18-7.53,3.54c-1.93,2.26-2.9,4.92-2.9,7.99s.97,5.68,2.9,7.91c2.01,2.34,4.52,3.5,7.53,3.5s5.4-1.19,7.38-3.58c1.86-2.24,2.79-4.85,2.79-7.84Z"/>
      <path class="cls-1" d="M327.09,47.68l-.04.49c-.55,9.34-.83,17.37-.83,24.07,0,2.99.05,7.47.15,13.43.1,5.97.15,10.43.15,13.39,0,.58-.2.87-.6.87h-7.2c-.45,0-.68-.29-.68-.87,0-2.96.02-7.43.08-13.39.05-5.96.08-10.44.08-13.43,0-2.71-.13-6.79-.4-12.23-.26-5.44-.4-9.5-.4-12.19,0-.5.26-.75.79-.75.45,0,1.13.04,2.03.11.9.08,1.58.11,2.03.11.48,0,1.18-.04,2.11-.11.93-.08,1.62-.11,2.07-.11s.67.2.64.6Z"/>
      <path class="cls-1" d="M352.18,88.33c0,3.74-1.49,6.74-4.48,9-2.71,2.06-6.02,3.09-9.91,3.09-1.51,0-2.36-.04-2.56-.11-.43-.2-.64-.82-.64-1.85,0-.55-.07-1.38-.21-2.49-.14-1.1-.21-1.92-.21-2.45,0-.33.23-.54.68-.64.33-.08.79-.08,1.39,0,.78.08,1.16.11,1.13.11,4.75,0,7.12-1.46,7.12-4.37,0-1.38-1.04-2.65-3.13-3.81-3.39-1.86-5.34-3-5.84-3.43-2.08-1.78-3.13-4.12-3.13-7.01,0-3.77,1.42-6.71,4.26-8.82,2.56-1.88,5.8-2.83,9.72-2.83.35,0,.61.16.77.49.16.33.48,1.34.94,3.05.46,1.71.7,2.74.7,3.09,0,.28-.24.45-.72.53-1.61.23-3.23.44-4.86.64-1.93.53-2.9,1.58-2.9,3.16,0,1.13,1.02,2.27,3.05,3.43,3.01,1.68,4.92,2.9,5.73,3.65,2.06,1.96,3.09,4.47,3.09,7.54Z"/>
      <path class="cls-1" d="M394.22,65.84c0,.1-.04.33-.11.68-.98,5.75-1.47,10.71-1.47,14.88,0,.25.31,5.89.94,16.92l.04.53c.02.73-.31,1.09-1,1.09s-1.73.08-3.13.25c-1.39.16-2.43.24-3.11.24-.48,0-.84-.88-1.09-2.64-.25-1.76-.49-2.64-.72-2.64-.15,0-.83.49-2.03,1.47-1.48,1.21-2.86,2.12-4.14,2.75-1.98,1-3.97,1.51-5.95,1.51-4.87,0-8.98-1.95-12.32-5.84-3.16-3.72-4.75-8.05-4.75-13,0-5.58,1.59-10.18,4.78-13.83,3.34-3.79,7.74-5.69,13.19-5.69,3.84,0,7.2,1.33,10.06,3.99.43.5,1.09,1.23,2,2.19.08.08.15.11.23.11.15,0,.36-.79.64-2.37.28-1.58.63-2.37,1.06-2.37.68,0,1.95.19,3.81.57,2.06.45,3.09.85,3.09,1.21ZM384.62,81.59c0-3.09-.92-5.74-2.75-7.95-1.93-2.39-4.41-3.58-7.42-3.58s-5.53,1.18-7.53,3.54c-1.93,2.26-2.9,4.92-2.9,7.99s.97,5.68,2.9,7.91c2.01,2.34,4.52,3.5,7.53,3.5s5.4-1.19,7.38-3.58c1.86-2.24,2.79-4.85,2.79-7.84Z"/>
      <path class="cls-1" d="M426.66,65.76c0,.55-.29,1.78-.87,3.69-.58,1.91-.98,2.86-1.21,2.86-1.13-.5-2.27-1-3.41-1.51-1.14-.5-2.39-.75-3.75-.75-3.09,0-5.66,1.14-7.72,3.43-2.06,2.29-3.09,4.99-3.09,8.1s1.03,5.71,3.09,7.95c2.11,2.31,4.68,3.47,7.72,3.47,1.68,0,3.34-.41,4.97-1.24,1.63-.83,2.35-1.24,2.15-1.24.33,0,.69,1.06,1.09,3.17.38,1.91.56,3.23.56,3.96,0,.78-1.47,1.54-4.41,2.3-2.46.63-4.28.94-5.46.94-5.17,0-9.54-1.93-13.11-5.8-3.49-3.77-5.24-8.26-5.24-13.49s1.71-9.85,5.12-13.56c3.52-3.82,7.9-5.73,13.15-5.73,3.52,0,6.73.89,9.65,2.67.5.3.75.57.75.79Z"/>
      <path class="cls-1" d="M463.28,79.7c0,1.86-.8,3.1-2.41,3.73-1.08.4-8.85,1.14-23.32,2.22.33,2.21,1.54,4.09,3.65,5.65,2.01,1.48,4.17,2.22,6.48,2.22,3.97,0,7.61-1.28,10.93-3.84.4-.33.8-.65,1.21-.98.2,0,.33.02.4.08.06.05.53.92,1.41,2.62.88,1.7,1.32,2.61,1.32,2.73,0,.15-.2.44-.6.87-3.69,3.92-8.43,5.88-14.2,5.88s-10.47-1.74-13.94-5.22c-3.47-3.48-5.2-8.12-5.2-13.92,0-5.17,1.66-9.68,4.97-13.53,3.49-3.99,7.77-5.99,12.85-5.99,4.72,0,8.67,1.73,11.83,5.2,3.09,3.37,4.63,7.46,4.63,12.28ZM454.32,77.4c0-2.08-.82-3.93-2.47-5.54-1.65-1.61-3.5-2.41-5.56-2.41-2.31,0-4.36.93-6.16,2.79-1.8,1.86-2.69,3.94-2.69,6.25,0,.53.45.79,1.36.79,3.72,0,8.16-.38,13.34-1.13,1.46-.2,2.19-.45,2.19-.75Z"/>
    </g>
    <g>
      <path class="cls-1" d="M253.28,162.29c0,1.86-.8,3.1-2.41,3.73-1.08.4-8.85,1.14-23.32,2.22.33,2.21,1.54,4.09,3.65,5.65,2.01,1.48,4.17,2.22,6.48,2.22,3.97,0,7.61-1.28,10.93-3.84.4-.33.8-.65,1.21-.98.2,0,.33.03.4.08.06.05.53.92,1.41,2.62.88,1.7,1.32,2.61,1.32,2.73,0,.15-.2.44-.6.87-3.69,3.92-8.43,5.88-14.2,5.88s-10.47-1.74-13.94-5.22c-3.47-3.48-5.2-8.12-5.2-13.92,0-5.17,1.66-9.68,4.97-13.53,3.49-3.99,7.77-5.99,12.85-5.99,4.72,0,8.67,1.73,11.83,5.2,3.09,3.37,4.63,7.46,4.63,12.28ZM244.31,159.99c0-2.08-.82-3.93-2.47-5.54-1.65-1.61-3.5-2.41-5.56-2.41-2.31,0-4.36.93-6.16,2.79-1.8,1.86-2.69,3.94-2.69,6.25,0,.53.45.79,1.36.79,3.72,0,8.16-.38,13.34-1.13,1.46-.2,2.19-.45,2.19-.75Z"/>
      <path class="cls-1" d="M291.75,181.77c0,.55-.25.83-.75.83-.83,0-2.07-.01-3.71-.04-1.65-.03-2.88-.04-3.71-.04-.45,0-.68-.36-.68-1.09,0-1.23.04-3.1.11-5.61.08-2.51.11-4.4.11-5.65,0-1-.01-2.51-.04-4.5-.03-2-.04-3.5-.04-4.5,0-2.86-.41-4.88-1.24-6.07-1-1.41-2.86-2.11-5.58-2.11-1.26,0-3,.7-5.24,2.11-2.36,1.48-3.54,2.8-3.54,3.96v22.61c0,.63-.24.94-.72.94-.8,0-2.01-.01-3.62-.04-1.61-.03-2.81-.04-3.62-.04-.53,0-.79-.29-.79-.87,0-1.98.03-4.96.09-8.93.06-3.97.09-6.96.09-8.97,0-5.35-.57-10.29-1.7-14.81-.08-.23-.11-.39-.11-.49,0-.25.16-.43.49-.53.18-.02,1.61-.26,4.31-.7,2.7-.44,4.11-.66,4.24-.66.15,0,.25.2.3.6.12,1.56.41,3.13.87,4.71,1.31-1.03,3.03-2.31,5.16-3.84,2.64-1.61,5.19-2.41,7.65-2.41,4.72,0,7.95,1.37,9.68,4.11,1.28,2.01,1.92,5.26,1.92,9.76,0,.78-.02,1.97-.06,3.58-.04,1.61-.06,2.81-.06,3.62,0,1.68.02,4.19.08,7.53.05,3.34.08,5.85.08,7.54Z"/>
      <path class="cls-1" d="M355.57,164.32c0,4.97-1.54,9.31-4.63,13-3.29,3.92-7.38,5.88-12.28,5.88-3.27,0-6.14-.83-8.63-2.49-1-.85-2.01-1.7-3.01-2.52-.28.08-.46.83-.55,2.26-.09,1.43-.3,2.15-.62,2.15h-7.95c-.3,0-.45-.16-.45-.49,0,.03.02-.2.08-.68.4-4.02.6-11.7.6-23.06,0-4.65-.2-11.46-.6-20.46-.25-5.73-.38-8.24-.38-7.54,0-.65.33-1.02.98-1.09.9-.02,2.25-.08,4.03-.15.35-.03,1.07-.11,2.15-.26.9-.15,1.63-.23,2.19-.23.4,0,.6.29.6.87,0,.85-.06,2.16-.19,3.92-.13,1.76-.19,3.08-.19,3.96,0,1.31-.06,3.27-.17,5.9-.11,2.62-.17,4.59-.17,5.9,0,.96.18,1.43.53,1.43.18,0,.36-.14.56-.41,2.76-3.44,6.42-5.16,10.96-5.16,5.2,0,9.41,1.95,12.62,5.84,3.01,3.67,4.52,8.15,4.52,13.45ZM347.05,163.98c0-2.99-.94-5.63-2.83-7.91-2.01-2.44-4.48-3.65-7.42-3.65s-5.53,1.19-7.54,3.58c-1.93,2.26-2.9,4.92-2.9,7.99s.97,5.8,2.9,8.06c2.01,2.36,4.55,3.54,7.61,3.54s5.44-1.22,7.42-3.65c1.83-2.26,2.75-4.91,2.75-7.95Z"/>
      <path class="cls-1" d="M395.09,164.17c0,5.25-1.72,9.73-5.16,13.45-3.52,3.84-7.87,5.76-13.07,5.76s-9.59-1.91-13.11-5.73c-3.44-3.69-5.16-8.16-5.16-13.41s1.72-9.72,5.16-13.41c3.54-3.77,7.91-5.65,13.11-5.65s9.52,1.88,13.04,5.65c3.47,3.67,5.2,8.11,5.2,13.34ZM387.14,164.25c0-3.06-.94-5.68-2.83-7.84-1.96-2.29-4.45-3.43-7.46-3.43s-5.51,1.13-7.5,3.39c-1.88,2.18-2.83,4.81-2.83,7.87s.95,5.63,2.86,7.84c2.01,2.34,4.5,3.5,7.46,3.5s5.48-1.17,7.46-3.5c1.88-2.21,2.83-4.82,2.83-7.84Z"/>
      <path class="cls-1" d="M435.29,148.35c0,1.83-.08,4.6-.23,8.31-.15,3.71-.23,6.49-.23,8.34s.06,4.58.17,8.23.17,6.4.17,8.23c0,.5-.24.83-.72.98-.2.05-2.75.08-7.65.08-.3,0-.48-.94-.55-2.83-.06-1.88-.21-2.83-.43-2.83-.13,0-.31.11-.57.34-4.19,3.64-8.34,5.46-12.43,5.46-5.55,0-9.22-2.01-11-6.03-1.11-2.49-1.66-6.96-1.66-13.41,0-5.83.46-10.76,1.39-14.81.23-.98.64-1.47,1.24-1.47.73,0,1.82.01,3.28.04,1.46.03,2.55.04,3.28.04.5,0,.75.28.75.83,0,.98-.16,2.61-.49,4.9-.35,2.44-.54,4.16-.56,5.16-.08,1.51-.11,3.16-.11,4.97,0,4.4.31,7.35.94,8.85,1.08,2.71,3.48,4.07,7.2,4.07,1.58,0,3.45-.78,5.61-2.34,2.29-1.63,3.47-3.2,3.54-4.71.13-1.88.19-8.51.19-19.89,0-1.23.51-1.85,1.54-1.85h6.22c.73,0,1.09.44,1.09,1.32Z"/>
      <path class="cls-1" d="M463.96,175.59c0,.55-.05,1.31-.15,2.26-.13,1.18-.2,1.95-.23,2.3-.02.45-.06.73-.11.83-.1.18-.34.35-.72.53-2.06.98-5.3,1.47-9.72,1.47-5.88,0-8.82-2.66-8.82-7.99,0-2.13.05-5.34.15-9.63.1-4.28.15-7.49.15-9.63,0-1.03-.52-1.58-1.54-1.66-.93,0-1.85-.01-2.75-.04-.53-.13-.79-1.16-.79-3.09,0-.73.05-1.49.15-2.3.08-.6.48-.97,1.21-1.09.63,0,1.24-.01,1.85-.04,1.15-.05,1.73-.57,1.73-1.54s-.03-2.54-.09-4.6c-.06-2.06-.09-3.6-.09-4.63,0-1.83.35-2.75,1.06-2.75.23,0,2.59.39,7.08,1.17.58.08.87.35.87.83,0,1.11-.08,2.76-.24,4.97-.16,2.21-.25,3.87-.25,4.97,0,.73.34,1.09,1.02,1.09h9.04c.43,0,.64.15.64.45s-.04.79-.13,1.45c-.09.67-.13,1.16-.13,1.49,0,.38.01.96.04,1.73.02.78.04,1.36.04,1.73,0,.48-.35.72-1.06.72-1,0-2.52-.07-4.56-.21-2.03-.14-3.55-.21-4.56-.21-.2,0-.35.72-.45,2.15-.13,1.78-.19,4.28-.19,7.5v5.61c0,2.16.2,3.67.6,4.52.6,1.31,1.85,1.96,3.73,1.96.78,0,1.92-.17,3.43-.51,1.51-.34,2.62-.51,3.35-.51.3,0,.45.23.45.68Z"/>
      <path class="cls-1" d="M501.26,162.29c0,1.86-.8,3.1-2.41,3.73-1.08.4-8.85,1.14-23.32,2.22.33,2.21,1.54,4.09,3.65,5.65,2.01,1.48,4.17,2.22,6.48,2.22,3.97,0,7.61-1.28,10.93-3.84.4-.33.8-.65,1.21-.98.2,0,.33.03.4.08.06.05.53.92,1.41,2.62.88,1.7,1.32,2.61,1.32,2.73,0,.15-.2.44-.6.87-3.69,3.92-8.43,5.88-14.2,5.88s-10.47-1.74-13.94-5.22c-3.47-3.48-5.2-8.12-5.2-13.92,0-5.17,1.66-9.68,4.97-13.53,3.49-3.99,7.77-5.99,12.85-5.99,4.72,0,8.67,1.73,11.83,5.2,3.09,3.37,4.63,7.46,4.63,12.28ZM492.29,159.99c0-2.08-.82-3.93-2.47-5.54-1.65-1.61-3.5-2.41-5.56-2.41-2.31,0-4.36.93-6.16,2.79-1.8,1.86-2.69,3.94-2.69,6.25,0,.53.45.79,1.36.79,3.72,0,8.16-.38,13.34-1.13,1.46-.2,2.19-.45,2.19-.75Z"/>
      <path class="cls-1" d="M516.33,137.46c0,3.09-1.72,4.63-5.16,4.63s-5.24-1.54-5.24-4.63c0-1.38.54-2.52,1.62-3.43,1-.85,2.21-1.28,3.62-1.28s2.62.44,3.64,1.32c1.02.88,1.53,2.01,1.53,3.39ZM516.07,147.67c0,1.93-.12,4.85-.36,8.76s-.36,6.84-.36,8.8c0,1.83.04,4.58.11,8.23.08,3.65.11,6.39.11,8.19,0,.53-.23.79-.68.79h-7.35c-.53,0-.79-.51-.79-1.54,0-1.73.04-4.34.13-7.82.09-3.48.13-6.1.13-7.86,0-1.96-.15-4.9-.43-8.82-.29-3.92-.43-6.86-.43-8.82,0-.43.26-.64.79-.64.45,0,1.15.06,2.09.19.94.13,1.65.19,2.13.19s1.19-.06,2.13-.19c.94-.13,1.65-.19,2.13-.19.43,0,.64.24.64.72Z"/>
      <path class="cls-1" d="M533.06,130.26l-.04.49c-.55,9.34-.83,17.37-.83,24.07,0,2.99.05,7.47.15,13.43.1,5.96.15,10.43.15,13.39,0,.58-.2.87-.6.87h-7.2c-.45,0-.68-.29-.68-.87,0-2.96.02-7.43.08-13.39.05-5.97.08-10.44.08-13.43,0-2.71-.13-6.79-.4-12.23-.26-5.44-.4-9.5-.4-12.19,0-.5.26-.75.79-.75.45,0,1.13.04,2.03.11.9.08,1.58.11,2.04.11.48,0,1.18-.04,2.11-.11.93-.08,1.62-.11,2.07-.11s.67.2.64.6Z"/>
      <path class="cls-1" d="M550.05,130.26l-.04.49c-.55,9.34-.83,17.37-.83,24.07,0,2.99.05,7.47.15,13.43.1,5.96.15,10.43.15,13.39,0,.58-.2.87-.6.87h-7.2c-.45,0-.68-.29-.68-.87,0-2.96.02-7.43.08-13.39.05-5.97.08-10.44.08-13.43,0-2.71-.13-6.79-.4-12.23-.26-5.44-.4-9.5-.4-12.19,0-.5.26-.75.79-.75.45,0,1.13.04,2.03.11.9.08,1.58.11,2.04.11.48,0,1.18-.04,2.11-.11.93-.08,1.62-.11,2.07-.11s.67.2.64.6Z"/>
      <path class="cls-1" d="M589.42,162.29c0,1.86-.8,3.1-2.41,3.73-1.08.4-8.85,1.14-23.32,2.22.33,2.21,1.54,4.09,3.65,5.65,2.01,1.48,4.17,2.22,6.48,2.22,3.97,0,7.61-1.28,10.93-3.84.4-.33.8-.65,1.21-.98.2,0,.33.03.4.08.06.05.53.92,1.41,2.62.88,1.7,1.32,2.61,1.32,2.73,0,.15-.2.44-.6.87-3.69,3.92-8.43,5.88-14.2,5.88s-10.47-1.74-13.94-5.22c-3.47-3.48-5.2-8.12-5.2-13.92,0-5.17,1.66-9.68,4.97-13.53,3.49-3.99,7.77-5.99,12.85-5.99,4.72,0,8.67,1.73,11.83,5.2,3.09,3.37,4.63,7.46,4.63,12.28ZM580.45,159.99c0-2.08-.82-3.93-2.47-5.54-1.65-1.61-3.5-2.41-5.56-2.41-2.31,0-4.37.93-6.16,2.79-1.8,1.86-2.69,3.94-2.69,6.25,0,.53.45.79,1.36.79,3.72,0,8.16-.38,13.34-1.13,1.46-.2,2.19-.45,2.19-.75Z"/>
    </g>
  </g>
</svg>