<?xml version="1.0" encoding="UTF-8"?>
<svg id="Calque_1" data-name="Calque 1" xmlns="http://www.w3.org/2000/svg" viewBox="0 0 310.86 310.86">
  <defs>
    <style>
      .cls-1 {
        fill: #fff;
      }

      .cls-2 {
        fill: #1a1a1e;
      }
    </style>
  </defs>
  <circle class="cls-1" cx="155.43" cy="155.43" r="155.43"/>
  <g>
    <g>
      <path class="cls-2" d="M269.41,156.11c-.07,4.25-.07,8.47-.65,12.66,0,.01,0,.02-.01.02-2.06,9.43-6.57,17.57-12.52,24.44-17.6,20.56-48.59,27.86-72.8,14.54-1.11-.62-1.67-1.91-1.34-3.13,3.69-13.85,6.69-21.85,8.42-25.91,1-2.35,2.94-4.16,5.35-4.99,2.42-.82,5.86-1.75,9.82-2.1,7.78-.67,9.94-3.05,12.05-5.19,1.78-1.82-.86-8.31-1.71-10.24-.15-.35-.11-.75.12-1.05l1.42-1.91c1.47-3.04-.39-4.43-1.27-4.89-.19-.1-.22-.34-.07-.49,1.73-1.74,1.76-6.05.03-6.71-1.15-.44-1.85-2.31-2.2-3.63-.2-.78.03-1.59.6-2.15,1.1-1.06,2.71-3.13,1.72-5.38-1.3-2.97-7.26-4.17-11.26-9.11-1.6-1.98-1.78-3.27-1.41-4.11,1.27-2.95,1.21-6.1.57-9.24-.99-4.84-.88-4.39-2.59-6.88-.13-.19-.41-.16-.52.04-4.04,7.7-29.67,21.04-31.2,22.3-1.06.87-3.22,3.46-4.17,5.03-.92,1.53-3.1,6.55-3.32,10.41-.12,1.97-.76,1.48-1.75.36-2.94-3.32-4.59-7.58-4.81-12.01-.03-.6.14-1.19.46-1.7,2.46-3.86,5.49-7.62,8.53-10.47,1.95-1.83,4.19-3.34,6.58-4.56l.33-.17c6.69-3.32,12.05-6.18,16.64-8.72l.03-.03c1.84-1,3.36-1.94,5.03-2.83l.02-.05c3.64-2.14,7.6-4.54,10.62-6.64h.01c3.3-2.31,19.85-12.96,15.55-17.48-1.07-.86-2.66-.95-7.67,1.16-5.13,2.18-11.46,5.63-14.84,7.52-19.22-26.1-55.44-20.35-76.39,1.09-16.42,14.5-15.09,39.72-5.41,58.92.53,1.05.41,2.29-.3,3.23-11.76,15.54-17.76,37.98-43.06,9.93-1.64-1.82-2.5-4.2-2.44-6.64.54-21.4,26.23-73.74,25.3-93.41v-.03c.05-.25.1-.46.15-.6.21-.64.43-1.28.68-1.89.01-.03.02-.05.03-.08.11-.31.23-.62.36-.92,2.04-5.01,5.27-9.42,8.46-13.74,0-.02.01-.03.03-.04,2.36-3.29,5.49-6.39,6.07-10.41.01-.03.01-.06.01-.09.2-1.51.05-3.19-.6-5.15-.01-.04.04-.08.06-.04.7,1.27,3.22,5.82,4.42,7.99.27.49.98.47,1.22-.03,1.24-2.58,4.11-8.58,5.18-10.76.16-.33.63-.32.77.02,1.43,3.2,6.6,14.8,8.75,19.64.56,1.26,1.91,1.96,3.27,1.72,69.74-12.03,135.91,43.1,135.64,114.58Z"/>
      <path class="cls-2" d="M294.72,155.51c0,77.41-62.75,140.16-140.16,140.16C.54,297.73-37.65,75.33,105.05,24.34l-.07.04c2.06,3.62-2.23,7.73-5.05,11.63-3.64,4.98-7.66,10.43-9.86,17.5-.2.63-.59,1.19-1.12,1.57-141.04,100.93,18.85,301.9,149,186.71,13.05-12.7,23.92-28.91,29.8-46.14l-.06-.04c31-84.18-42.83-172.43-130.81-159.99-1.33.19-2.64-.51-3.18-1.74l-5.48-12.32c-.79-1.78.29-3.83,2.21-4.18,84.08-15.43,165.31,51.88,164.3,138.13Z"/>
      <path class="cls-2" d="M261.52,195.34c.22-.25.61-.02.5.29-.59,1.61-1.53,4.17-2.18,5.68h-.01c-2.83,6.82-6.87,13.73-11.41,20.09-.03.05-.07.11-.11.16-.04.06-.08.11-.13.17-1.93,2.68-3.96,5.28-6.07,7.81-.02.02-.04.05-.06.06-23.85,26.67-58.42,43.05-91.72,41.14-71.21-4.22-75.73-101.4-7.39-112.22,1.85-.3,3.56,1.04,3.77,2.9,2.63,23.18,16.31,41.6,34.51,51.17.02.02.04.03.06.04,23.76,12.98,56.95,8.91,80.24-17.3Z"/>
    </g>
    <path class="cls-2" d="M151.19,121.6c-5.41,7.54-23.7,11.81-30.33,18.37-.05.05-.13.03-.16-.03-7.3-14.75-12.18-37.08,4.08-52.38l.22-.2c4.06-3.91,8.92-7.62,13.76-10.29l.07-.04c19.68-11.57,43.36-7.28,54.95,9.98.47.6,2.42,3.54-6.48,8.61-6.6,3.76-14.56,6.94-21.61,11.53-5.17,3.36-13.66,13.27-14.51,14.45Z"/>
  </g>
</svg>